<?xml version="1.0" encoding="UTF-8"?>
<!DOCTYPE svg PUBLIC "-//W3C//DTD SVG 1.1//EN" "http://www.w3.org/Graphics/SVG/1.1/DTD/svg11.dtd">
<svg xmlns="http://www.w3.org/2000/svg" version="1.1" width="180px" height="180px" style="shape-rendering:geometricPrecision; text-rendering:geometricPrecision; image-rendering:optimizeQuality; fill-rule:evenodd; clip-rule:evenodd" xmlns:xlink="http://www.w3.org/1999/xlink">
<g><path style="opacity:0.901" fill="#000000" d="M 179.5,155.5 C 179.5,158.5 179.5,161.5 179.5,164.5C 175.661,168.419 171.827,168.419 168,164.5C 160.698,152.52 153.365,140.52 146,128.5C 142.802,130.331 139.968,132.498 137.5,135C 140.27,143.58 143.27,152.08 146.5,160.5C 143.706,167.954 139.206,169.287 133,164.5C 129.994,156.981 127.494,149.314 125.5,141.5C 113.624,147.689 101.79,154.022 90,160.5C 77.7498,154.292 65.5831,147.959 53.5,141.5C 51.5918,149.327 49.0918,156.993 46,164.5C 39.7291,169.121 35.5624,167.621 33.5,160C 36.0421,151.16 39.0421,142.493 42.5,134C 39.3333,132.167 36.1667,130.333 33,128.5C 25.6344,140.369 18.4677,152.369 11.5,164.5C 7.54237,168.381 3.54237,168.381 -0.5,164.5C -0.5,161.5 -0.5,158.5 -0.5,155.5C 8.50163,141.805 17.1683,127.805 25.5,113.5C 27.6316,111.883 29.9649,111.383 32.5,112C 37.2854,115.059 42.2854,117.559 47.5,119.5C 49.0871,112.987 51.2538,106.654 54,100.5C 59.0417,95.4252 63.5417,96.0919 67.5,102.5C 72.532,110.369 77.3654,118.369 82,126.5C 82.6667,116.5 82.6667,106.5 82,96.5C 71.7948,90.4027 61.7948,84.0694 52,77.5C 51.3333,62.8333 51.3333,48.1667 52,33.5C 61.8273,26.7791 71.994,20.6125 82.5,15C 85.5464,12.826 88.8798,12.1593 92.5,13C 103.147,18.9672 113.813,24.9672 124.5,31C 126.32,31.9794 127.487,33.4794 128,35.5C 128.948,49.9021 128.615,64.2354 127,78.5C 117,84.5 107,90.5 97,96.5C 96.3333,106.5 96.3333,116.5 97,126.5C 102.981,117.696 108.647,108.696 114,99.5C 117.629,95.5311 121.295,95.5311 125,99.5C 127.818,106.437 130.485,113.437 133,120.5C 137.422,117.036 142.256,114.203 147.5,112C 149.635,111.365 151.635,111.699 153.5,113C 162.427,127.074 171.093,141.241 179.5,155.5 Z M 87.5,27.5 C 96.7741,31.2217 105.607,35.8883 114,41.5C 114.832,51.1839 114.665,60.8505 113.5,70.5C 105.548,74.7238 97.7143,79.0572 90,83.5C 81.9731,79.5687 74.1397,75.2354 66.5,70.5C 65.1667,60.5 65.1667,50.5 66.5,40.5C 73.896,36.7132 80.896,32.3799 87.5,27.5 Z M 68.5,132.5 C 65.4752,131.235 62.6418,129.568 60,127.5C 59.8458,125.295 60.5124,123.295 62,121.5C 64.6937,124.892 66.8604,128.559 68.5,132.5 Z M 116.5,121.5 C 118.27,122.856 119.603,124.689 120.5,127C 117.299,129.267 113.966,130.934 110.5,132C 112.891,128.717 114.891,125.217 116.5,121.5 Z"/></g>
</svg>
