<svg width="55" height="55" viewBox="0 0 55 55" fill="none" xmlns="http://www.w3.org/2000/svg">
<path d="M52.354 8.51C51.196 4.22 42.577 0 27.5 0C12.423 0 3.803 4.22 2.646 8.51C2.562 8.657 2.5 8.818 2.5 9V9.5V21V21.5V22V33V33.5V34V46C2.5 46.162 2.543 46.315 2.617 46.451C3.798 51.346 14.364 55 27.5 55C40.606 55 51.155 51.361 52.375 46.484C52.455 46.341 52.5 46.176 52.5 46V34V33.5V33V22V21.5V21V9.5V9C52.5 8.818 52.438 8.657 52.354 8.51ZM50.421 33.985C50.393 34.106 50.354 34.226 50.305 34.348C50.265 34.447 50.216 34.546 50.162 34.645C50.095 34.768 50.02 34.891 49.931 35.014C49.865 35.107 49.79 35.199 49.712 35.291C49.601 35.422 49.483 35.553 49.349 35.683C49.268 35.762 49.179 35.84 49.089 35.919C48.925 36.062 48.754 36.204 48.563 36.345C48.481 36.406 48.393 36.465 48.306 36.525C48.08 36.681 47.844 36.836 47.585 36.988C47.517 37.029 47.444 37.068 47.373 37.108C47.075 37.276 46.764 37.443 46.428 37.605C46.385 37.626 46.34 37.646 46.296 37.666C45.921 37.843 45.529 38.017 45.11 38.185C45.098 38.19 45.086 38.194 45.074 38.199C42.803 39.106 39.898 39.869 36.513 40.369C36.496 40.371 36.479 40.373 36.462 40.376C35.804 40.473 35.129 40.559 34.436 40.635C34.323 40.647 34.204 40.655 34.09 40.667C33.485 40.73 32.873 40.788 32.243 40.834C31.955 40.855 31.653 40.865 31.36 40.883C30.886 40.911 30.417 40.942 29.931 40.959C29.137 40.984 28.327 41 27.5 41C26.673 41 25.863 40.984 25.068 40.956C24.582 40.939 24.113 40.907 23.639 40.88C23.346 40.863 23.044 40.852 22.756 40.831C22.126 40.785 21.514 40.727 20.909 40.664C20.795 40.652 20.676 40.644 20.563 40.632C19.87 40.556 19.195 40.469 18.537 40.373C18.52 40.371 18.503 40.369 18.486 40.366C15.101 39.866 12.196 39.103 9.925 38.196C9.913 38.192 9.901 38.187 9.889 38.182C9.47 38.014 9.077 37.84 8.703 37.663C8.66 37.642 8.614 37.622 8.571 37.602C8.235 37.44 7.924 37.274 7.626 37.105C7.556 37.065 7.482 37.026 7.414 36.985C7.155 36.833 6.919 36.678 6.693 36.522C6.607 36.462 6.518 36.403 6.436 36.342C6.245 36.201 6.074 36.059 5.91 35.916C5.821 35.838 5.731 35.76 5.65 35.68C5.516 35.55 5.398 35.42 5.287 35.288C5.209 35.196 5.134 35.104 5.068 35.011C4.98 34.888 4.905 34.765 4.837 34.642C4.783 34.543 4.735 34.444 4.694 34.345C4.645 34.224 4.606 34.103 4.578 33.982C4.541 33.823 4.5 33.661 4.5 33.5C4.5 33.387 4.513 33.274 4.531 33.162C4.556 33.011 4.542 32.86 4.5 32.717V25.293C4.528 25.319 4.563 25.344 4.592 25.37C4.81 25.562 5.032 25.753 5.282 25.937C9.049 28.786 16.582 31 27.5 31C38.372 31 45.886 28.804 49.669 25.972C49.971 25.752 50.243 25.525 50.499 25.294L50.5 25.293V32.717C50.458 32.86 50.444 33.011 50.469 33.162C50.488 33.274 50.5 33.387 50.5 33.5C50.5 33.661 50.459 33.823 50.421 33.985ZM50.5 13.293V20.717C50.458 20.86 50.444 21.011 50.469 21.162C50.488 21.274 50.5 21.387 50.5 21.5C50.5 21.661 50.459 21.823 50.421 21.985C50.393 22.106 50.354 22.226 50.305 22.348C50.265 22.447 50.216 22.546 50.162 22.645C50.095 22.768 50.02 22.891 49.931 23.014C49.865 23.107 49.79 23.199 49.712 23.291C49.601 23.422 49.483 23.553 49.349 23.683C49.268 23.762 49.179 23.84 49.089 23.919C48.925 24.062 48.754 24.204 48.563 24.345C48.481 24.406 48.393 24.465 48.306 24.525C48.08 24.681 47.844 24.836 47.585 24.988C47.517 25.029 47.444 25.068 47.373 25.108C47.075 25.276 46.764 25.443 46.428 25.605C46.385 25.626 46.34 25.646 46.296 25.666C45.921 25.843 45.529 26.017 45.11 26.185C45.098 26.19 45.086 26.194 45.074 26.199C42.803 27.106 39.898 27.869 36.513 28.369C36.496 28.371 36.479 28.373 36.462 28.376C35.804 28.473 35.129 28.559 34.436 28.635C34.323 28.647 34.204 28.655 34.09 28.667C33.485 28.73 32.873 28.788 32.243 28.834C31.955 28.855 31.653 28.865 31.36 28.883C30.886 28.911 30.417 28.942 29.931 28.959C29.137 28.984 28.327 29 27.5 29C26.673 29 25.863 28.984 25.068 28.956C24.582 28.939 24.113 28.907 23.639 28.88C23.346 28.863 23.044 28.852 22.756 28.831C22.126 28.785 21.514 28.727 20.909 28.664C20.795 28.652 20.676 28.644 20.563 28.632C19.87 28.556 19.195 28.469 18.537 28.373C18.52 28.371 18.503 28.369 18.486 28.366C15.101 27.866 12.196 27.103 9.925 26.196C9.913 26.192 9.901 26.187 9.889 26.182C9.47 26.014 9.077 25.84 8.703 25.663C8.66 25.642 8.614 25.622 8.571 25.602C8.235 25.44 7.924 25.274 7.626 25.105C7.556 25.065 7.482 25.026 7.414 24.985C7.155 24.833 6.919 24.678 6.693 24.522C6.607 24.462 6.518 24.403 6.436 24.342C6.245 24.201 6.074 24.059 5.91 23.916C5.821 23.838 5.731 23.76 5.65 23.68C5.516 23.55 5.398 23.42 5.287 23.288C5.209 23.196 5.134 23.104 5.068 23.011C4.98 22.888 4.905 22.765 4.837 22.642C4.783 22.543 4.735 22.444 4.694 22.345C4.645 22.224 4.606 22.103 4.578 21.982C4.541 21.823 4.5 21.661 4.5 21.5C4.5 21.387 4.513 21.274 4.531 21.162C4.556 21.011 4.542 20.86 4.5 20.717V13.293C4.62 13.402 4.757 13.509 4.887 13.617C4.959 13.677 5.026 13.737 5.102 13.797C5.402 14.033 5.726 14.266 6.077 14.493C6.15 14.54 6.232 14.586 6.308 14.633C6.602 14.816 6.913 14.995 7.24 15.171C7.361 15.236 7.482 15.3 7.607 15.364C7.972 15.55 8.355 15.731 8.758 15.906C8.824 15.935 8.884 15.965 8.951 15.993C9.42 16.192 9.918 16.382 10.436 16.566C10.579 16.617 10.729 16.665 10.876 16.715C11.288 16.854 11.714 16.987 12.155 17.116C12.314 17.162 12.47 17.21 12.633 17.254C13.218 17.416 13.822 17.57 14.456 17.712C14.543 17.732 14.637 17.748 14.725 17.767C15.284 17.889 15.864 18.002 16.46 18.108C16.662 18.144 16.867 18.178 17.073 18.212C17.64 18.305 18.224 18.39 18.823 18.468C18.977 18.488 19.124 18.511 19.28 18.53C20.024 18.62 20.794 18.697 21.585 18.763C21.78 18.779 21.983 18.791 22.181 18.805C22.814 18.851 23.461 18.889 24.123 18.919C24.364 18.93 24.604 18.941 24.85 18.95C25.712 18.979 26.59 19 27.5 19C28.41 19 29.288 18.979 30.15 18.95C30.395 18.941 30.635 18.93 30.877 18.919C31.539 18.889 32.186 18.851 32.819 18.805C33.017 18.79 33.219 18.779 33.415 18.763C34.206 18.698 34.976 18.62 35.72 18.53C35.876 18.511 36.023 18.488 36.177 18.468C36.776 18.39 37.359 18.305 37.927 18.212C38.133 18.178 38.338 18.144 38.54 18.108C39.136 18.002 39.716 17.889 40.275 17.767C40.363 17.748 40.457 17.731 40.544 17.712C41.178 17.57 41.782 17.415 42.367 17.254C42.53 17.209 42.686 17.162 42.845 17.116C43.286 16.987 43.712 16.854 44.124 16.715C44.271 16.665 44.421 16.617 44.564 16.566C45.082 16.382 45.581 16.192 46.049 15.993C46.116 15.965 46.176 15.935 46.242 15.906C46.645 15.73 47.028 15.55 47.393 15.364C47.518 15.3 47.64 15.236 47.76 15.171C48.087 14.996 48.398 14.817 48.692 14.633C48.768 14.586 48.85 14.54 48.923 14.493C49.274 14.266 49.598 14.034 49.898 13.797C49.973 13.737 50.04 13.677 50.113 13.617C50.243 13.509 50.38 13.402 50.5 13.293ZM27.5 2C41.055 2 50.5 5.952 50.5 9.5C50.5 13.048 41.055 17 27.5 17C13.945 17 4.5 13.048 4.5 9.5C4.5 5.952 13.945 2 27.5 2ZM50.5 45.703C50.486 45.747 50.476 45.792 50.468 45.838C49.901 49.297 40.536 53 27.5 53C14.464 53 5.099 49.297 4.532 45.838C4.524 45.793 4.513 45.749 4.5 45.707V37.293C4.528 37.319 4.563 37.344 4.592 37.37C4.81 37.562 5.032 37.753 5.282 37.937C9.049 40.786 16.582 43 27.5 43C38.372 43 45.886 40.804 49.669 37.972C49.971 37.752 50.243 37.525 50.499 37.294L50.5 37.293V45.703V45.703Z" fill="black"/>
</svg>
