<svg id="svg" version="1.1" xmlns="http://www.w3.org/2000/svg" xmlns:xlink="http://www.w3.org/1999/xlink" width="400" height="382.03124999999994" viewBox="0, 0, 400,382.03124999999994"><g id="svgg"><path id="path0" d="M196.798 0.276 C 195.893 0.447,193.972 2.059,194.292 2.379 C 194.384 2.471,194.030 2.776,193.505 3.057 C 192.980 3.338,192.550 3.882,192.550 4.267 C 192.550 4.652,192.378 4.967,192.168 4.967 C 191.958 4.967,191.786 5.310,191.786 5.731 C 191.786 6.151,191.614 6.495,191.404 6.495 C 191.194 6.495,191.022 6.839,191.022 7.259 C 191.022 7.679,190.850 8.023,190.640 8.023 C 190.430 8.023,190.258 8.453,190.258 8.978 C 190.258 9.503,190.086 9.933,189.876 9.933 C 189.666 9.933,189.494 10.277,189.494 10.697 C 189.494 11.117,189.322 11.461,189.112 11.461 C 188.902 11.461,188.730 11.805,188.730 12.225 C 188.730 12.646,188.558 12.989,188.348 12.989 C 188.138 12.989,187.966 13.333,187.966 13.754 C 187.966 14.174,187.794 14.518,187.584 14.518 C 187.373 14.518,187.202 14.862,187.202 15.282 C 187.202 15.702,187.030 16.046,186.819 16.046 C 186.609 16.046,186.437 16.390,186.437 16.810 C 186.437 17.230,186.266 17.574,186.055 17.574 C 185.845 17.574,185.673 17.798,185.673 18.071 C 185.673 18.774,184.775 20.624,184.432 20.627 C 184.274 20.629,184.145 20.974,184.145 21.394 C 184.145 21.815,183.973 22.159,183.763 22.159 C 183.553 22.159,183.381 22.508,183.381 22.935 C 183.381 23.361,183.149 23.800,182.865 23.909 C 182.540 24.033,182.418 24.473,182.537 25.093 C 182.664 25.756,182.520 26.194,182.098 26.430 C 181.753 26.623,181.471 27.030,181.471 27.335 C 181.471 27.640,181.287 27.889,181.063 27.889 C 180.829 27.889,180.759 28.215,180.898 28.653 C 181.070 29.196,180.966 29.417,180.542 29.417 C 180.197 29.417,179.943 29.742,179.943 30.181 C 179.943 30.602,179.759 30.946,179.535 30.946 C 179.301 30.946,179.231 31.271,179.370 31.710 C 179.541 32.250,179.438 32.474,179.018 32.474 C 178.629 32.474,178.455 32.771,178.515 33.333 C 178.569 33.853,178.416 34.155,178.128 34.097 C 177.865 34.045,177.650 34.346,177.650 34.766 C 177.650 35.186,177.479 35.530,177.268 35.530 C 177.058 35.530,176.886 35.790,176.886 36.108 C 176.886 36.741,176.120 38.257,175.612 38.629 C 175.437 38.758,175.308 38.973,175.326 39.107 C 175.447 40.013,175.303 40.507,174.976 40.306 C 174.766 40.176,174.594 40.413,174.594 40.834 C 174.594 41.254,174.422 41.704,174.212 41.834 C 174.002 41.964,173.830 42.404,173.830 42.811 C 173.830 43.219,173.658 43.553,173.448 43.553 C 173.238 43.553,173.066 43.897,173.066 44.317 C 173.066 44.737,172.894 45.081,172.684 45.081 C 172.474 45.081,172.302 45.425,172.302 45.845 C 172.302 46.266,172.130 46.609,171.920 46.609 C 171.710 46.609,171.538 46.953,171.538 47.373 C 171.538 47.794,171.366 48.138,171.156 48.138 C 170.946 48.138,170.774 48.361,170.774 48.634 C 170.774 49.337,169.875 51.187,169.532 51.191 C 169.374 51.193,169.245 51.624,169.245 52.149 C 169.245 52.674,169.074 53.104,168.863 53.104 C 168.653 53.104,168.481 53.362,168.481 53.677 C 168.481 53.992,168.309 54.250,168.099 54.250 C 167.889 54.250,167.717 54.594,167.717 55.014 C 167.717 55.435,167.545 55.778,167.335 55.778 C 167.125 55.778,166.953 56.122,166.953 56.543 C 166.953 56.963,166.781 57.307,166.571 57.307 C 166.361 57.307,166.177 57.607,166.161 57.975 C 166.146 58.343,165.806 59.160,165.406 59.790 C 165.005 60.420,164.397 61.581,164.055 62.369 C 163.712 63.157,163.268 63.801,163.069 63.801 C 162.869 63.801,162.803 63.959,162.923 64.153 C 163.042 64.346,162.895 64.749,162.596 65.048 C 162.296 65.347,162.080 65.920,162.115 66.320 C 162.149 66.723,161.964 67.006,161.700 66.953 C 161.437 66.901,161.223 67.202,161.223 67.622 C 161.223 68.042,161.051 68.386,160.840 68.386 C 160.630 68.386,160.458 68.730,160.458 69.150 C 160.458 69.570,160.287 69.914,160.076 69.914 C 159.866 69.914,159.694 70.258,159.694 70.678 C 159.694 71.098,159.522 71.442,159.312 71.442 C 159.102 71.442,158.930 71.786,158.930 72.206 C 158.930 72.627,158.758 72.970,158.548 72.970 C 158.338 72.970,158.166 73.314,158.166 73.734 C 158.166 74.155,157.994 74.499,157.784 74.499 C 157.574 74.499,157.402 74.928,157.402 75.454 C 157.402 75.979,157.230 76.409,157.020 76.409 C 156.810 76.409,156.638 76.667,156.638 76.982 C 156.638 77.297,156.466 77.555,156.256 77.555 C 156.046 77.555,155.874 77.985,155.874 78.510 C 155.874 79.035,155.702 79.465,155.492 79.465 C 155.282 79.465,155.110 79.809,155.110 80.229 C 155.110 80.649,154.938 80.993,154.728 80.993 C 154.518 80.993,154.346 81.337,154.346 81.757 C 154.346 82.178,154.174 82.521,153.964 82.521 C 153.754 82.521,153.582 82.865,153.582 83.286 C 153.582 83.706,153.410 84.050,153.200 84.050 C 152.989 84.050,152.818 84.394,152.818 84.814 C 152.818 85.234,152.646 85.578,152.436 85.578 C 152.225 85.578,152.053 85.973,152.053 86.457 C 152.053 87.463,151.239 89.391,150.812 89.395 C 150.654 89.397,150.525 89.742,150.525 90.162 C 150.525 90.583,150.353 90.926,150.143 90.926 C 149.933 90.926,149.761 91.356,149.761 91.882 C 149.761 92.407,149.589 92.837,149.379 92.837 C 149.169 92.837,148.997 93.181,148.997 93.601 C 148.997 94.021,148.825 94.365,148.615 94.365 C 148.405 94.365,148.233 94.709,148.233 95.129 C 148.233 95.553,147.978 95.893,147.660 95.893 C 147.345 95.893,147.087 96.227,147.087 96.635 C 147.087 97.042,146.923 97.478,146.722 97.602 C 146.521 97.726,146.453 98.080,146.571 98.389 C 146.702 98.729,146.560 98.949,146.208 98.949 C 145.818 98.949,145.695 99.198,145.830 99.713 C 145.969 100.245,145.842 100.478,145.412 100.478 C 145.056 100.478,144.795 100.791,144.795 101.219 C 144.795 101.627,144.630 102.062,144.429 102.186 C 144.228 102.311,144.161 102.665,144.279 102.973 C 144.413 103.323,144.263 103.534,143.880 103.534 C 143.521 103.534,143.266 103.851,143.266 104.298 C 143.266 104.718,143.095 105.062,142.884 105.062 C 142.674 105.062,142.502 105.406,142.502 105.826 C 142.502 106.246,142.330 106.590,142.120 106.590 C 141.910 106.590,141.779 106.719,141.829 106.877 C 141.977 107.344,140.910 109.647,140.546 109.647 C 140.361 109.647,140.230 109.776,140.255 109.933 C 140.392 110.796,140.161 111.571,139.828 111.366 C 139.611 111.232,139.446 111.553,139.446 112.107 C 139.446 112.645,139.274 113.085,139.064 113.085 C 138.854 113.085,138.682 113.429,138.682 113.849 C 138.682 114.269,138.510 114.613,138.300 114.613 C 138.090 114.613,137.918 114.957,137.918 115.377 C 137.918 115.798,137.746 116.141,137.536 116.141 C 137.326 116.141,137.154 116.485,137.154 116.905 C 137.154 117.326,136.982 117.670,136.772 117.670 C 136.562 117.670,136.390 118.013,136.390 118.434 C 136.390 118.854,136.218 119.198,136.008 119.198 C 135.798 119.198,135.626 119.542,135.626 119.962 C 135.626 120.599,135.371 120.726,134.097 120.726 C 133.257 120.726,132.569 120.898,132.569 121.108 C 132.569 121.323,131.487 121.490,130.086 121.490 C 128.720 121.490,127.603 121.647,127.603 121.839 C 127.603 122.166,126.730 122.284,120.057 122.858 C 118.639 122.980,117.315 123.238,117.116 123.431 C 116.916 123.624,115.487 123.782,113.941 123.782 C 112.164 123.782,111.217 123.923,111.366 124.164 C 111.515 124.406,110.542 124.546,108.714 124.546 C 107.043 124.546,105.826 124.707,105.826 124.928 C 105.826 125.147,104.680 125.310,103.152 125.310 C 100.934 125.310,100.478 125.417,100.478 125.934 C 100.478 126.470,100.084 126.532,97.647 126.375 C 95.273 126.223,94.851 126.284,95.031 126.752 C 95.210 127.219,94.768 127.286,92.322 127.162 C 90.714 127.081,89.398 127.147,89.398 127.309 C 89.398 127.470,88.381 127.603,87.138 127.603 C 85.895 127.603,84.820 127.765,84.750 127.964 C 84.680 128.162,83.462 128.361,82.044 128.406 C 80.626 128.451,79.465 128.632,79.465 128.809 C 79.465 128.986,78.280 129.131,76.832 129.131 C 74.792 129.131,74.146 129.266,73.968 129.730 C 73.786 130.206,73.210 130.311,71.180 130.237 C 69.488 130.176,68.571 130.296,68.472 130.593 C 68.378 130.873,67.413 131.041,65.893 131.041 C 64.557 131.041,63.358 131.213,63.228 131.423 C 63.098 131.633,61.799 131.805,60.340 131.805 C 58.827 131.805,57.689 131.969,57.689 132.187 C 57.689 132.408,56.479 132.569,54.823 132.569 C 53.168 132.569,51.958 132.731,51.958 132.951 C 51.958 133.170,50.812 133.333,49.284 133.333 C 47.755 133.333,46.609 133.497,46.609 133.715 C 46.609 133.936,45.400 134.097,43.744 134.097 C 42.089 134.097,40.879 134.259,40.879 134.479 C 40.879 134.692,39.860 134.862,38.586 134.862 C 37.313 134.862,36.294 135.031,36.294 135.244 C 36.294 135.462,35.148 135.626,33.620 135.626 C 32.092 135.626,30.946 135.789,30.946 136.008 C 30.946 136.228,29.736 136.390,28.080 136.390 C 26.425 136.390,25.215 136.551,25.215 136.772 C 25.215 136.990,24.069 137.154,22.541 137.154 C 21.012 137.154,19.866 137.318,19.866 137.536 C 19.866 137.754,18.720 137.918,17.192 137.918 C 15.664 137.918,14.518 138.082,14.518 138.300 C 14.518 138.515,13.443 138.682,12.057 138.682 C 10.704 138.682,9.490 138.854,9.360 139.064 C 9.230 139.274,8.189 139.446,7.045 139.446 C 5.902 139.446,4.967 139.618,4.967 139.828 C 4.967 140.038,4.531 140.210,3.999 140.210 C 1.868 140.210,0.318 142.555,0.096 146.114 C -0.105 149.340,0.213 152.874,0.691 152.715 C 0.836 152.666,0.994 152.759,1.043 152.921 C 1.211 153.486,2.104 154.264,2.388 154.092 C 2.545 153.997,2.681 154.144,2.689 154.419 C 2.697 154.694,3.833 155.950,5.213 157.211 C 8.923 160.600,12.989 164.592,12.989 164.846 C 12.989 165.247,15.628 167.717,16.056 167.717 C 16.285 167.717,16.367 167.889,16.237 168.099 C 16.107 168.309,16.279 168.481,16.619 168.481 C 16.959 168.481,17.159 168.610,17.064 168.768 C 16.837 169.141,17.804 170.035,18.106 169.732 C 18.234 169.604,18.338 169.787,18.338 170.137 C 18.338 170.487,18.625 170.774,18.975 170.774 C 19.325 170.774,19.510 170.876,19.385 171.000 C 19.050 171.335,23.957 176.122,24.635 176.122 C 24.954 176.122,25.215 176.294,25.215 176.504 C 25.215 176.714,25.390 176.886,25.604 176.886 C 25.999 176.886,30.946 181.665,30.946 182.047 C 30.946 182.456,38.165 189.406,38.373 189.198 C 38.491 189.080,38.586 189.193,38.586 189.447 C 38.586 190.050,40.346 191.810,40.647 191.508 C 40.775 191.381,40.879 191.563,40.879 191.913 C 40.879 192.264,41.147 192.550,41.474 192.550 C 41.802 192.550,41.964 192.722,41.834 192.932 C 41.704 193.142,41.876 193.314,42.216 193.314 C 42.556 193.314,42.728 193.486,42.598 193.696 C 42.468 193.906,42.523 194.078,42.721 194.078 C 43.139 194.078,48.902 199.567,48.902 199.965 C 48.902 200.367,53.473 204.776,53.890 204.776 C 54.088 204.776,54.250 205.033,54.250 205.349 C 54.250 205.664,54.519 205.922,54.848 205.922 C 55.177 205.922,56.251 206.747,57.236 207.756 C 58.220 208.765,59.327 209.705,59.694 209.845 C 60.062 209.986,60.363 210.363,60.363 210.685 C 60.363 211.007,60.531 211.270,60.735 211.270 C 61.123 211.270,66.858 216.749,66.858 217.120 C 66.858 217.374,75.541 226.112,75.938 226.258 C 76.092 226.315,76.175 226.490,76.122 226.648 C 76.070 226.805,76.200 226.934,76.411 226.934 C 76.806 226.934,84.050 234.007,84.050 234.393 C 84.050 234.783,85.915 236.485,86.342 236.485 C 86.571 236.485,87.154 236.872,87.638 237.345 C 88.121 237.818,89.102 238.743,89.817 239.401 C 90.532 240.059,91.633 241.216,92.264 241.971 C 92.894 242.727,93.551 243.349,93.724 243.354 C 94.998 243.387,95.728 246.871,94.556 247.321 C 94.135 247.482,93.983 248.146,93.983 249.822 C 93.983 251.077,93.811 252.210,93.601 252.340 C 93.391 252.470,93.219 253.512,93.219 254.655 C 93.219 255.798,93.079 256.734,92.908 256.734 C 92.737 256.734,92.672 257.765,92.763 259.026 C 92.905 261.000,92.838 261.318,92.274 261.318 C 91.721 261.318,91.640 261.637,91.751 263.371 C 91.848 264.898,91.759 265.378,91.404 265.241 C 91.052 265.105,90.926 265.714,90.926 267.558 C 90.926 268.934,90.755 270.166,90.544 270.296 C 90.334 270.426,90.162 271.468,90.162 272.611 C 90.162 273.754,89.990 274.690,89.780 274.690 C 89.568 274.690,89.398 275.708,89.398 276.982 C 89.398 278.255,89.228 279.274,89.016 279.274 C 88.804 279.274,88.634 280.293,88.634 281.566 C 88.634 282.840,88.464 283.859,88.252 283.859 C 88.037 283.859,87.870 284.941,87.870 286.342 C 87.870 287.743,87.704 288.825,87.488 288.825 C 87.278 288.825,87.106 289.685,87.106 290.735 C 87.106 291.786,86.934 292.646,86.724 292.646 C 86.512 292.646,86.342 293.664,86.342 294.938 C 86.342 296.211,86.172 297.230,85.960 297.230 C 85.748 297.230,85.578 298.249,85.578 299.522 C 85.578 300.796,85.408 301.815,85.196 301.815 C 84.980 301.815,84.814 302.897,84.814 304.298 C 84.814 305.699,84.647 306.781,84.432 306.781 C 84.219 306.781,84.050 307.800,84.050 309.074 C 84.050 310.347,83.880 311.366,83.668 311.366 C 83.452 311.366,83.286 312.456,83.286 313.872 C 83.286 315.445,83.143 316.290,82.904 316.141 C 82.668 315.996,82.521 316.647,82.521 317.838 C 82.521 318.901,82.350 319.771,82.139 319.771 C 81.924 319.771,81.757 320.853,81.757 322.254 C 81.757 323.655,81.591 324.737,81.375 324.737 C 81.164 324.737,80.993 325.749,80.993 327.007 C 80.993 328.255,80.821 329.383,80.611 329.513 C 80.401 329.643,80.229 330.674,80.229 331.805 C 80.229 332.936,80.057 333.968,79.847 334.097 C 79.637 334.227,79.465 335.355,79.465 336.603 C 79.465 337.862,79.295 338.873,79.083 338.873 C 78.873 338.873,78.701 339.831,78.701 341.002 C 78.701 342.384,78.500 343.331,78.128 343.703 C 77.813 344.018,77.555 344.952,77.555 345.777 C 77.555 346.603,77.368 347.278,77.140 347.278 C 76.872 347.278,76.771 348.138,76.854 349.714 C 76.939 351.329,76.845 352.096,76.574 351.992 C 76.303 351.887,76.222 352.598,76.333 354.123 C 76.460 355.884,76.355 356.555,75.880 357.030 C 75.479 357.432,75.263 358.306,75.263 359.531 C 75.263 360.566,75.091 361.414,74.881 361.414 C 74.670 361.414,74.519 361.543,74.544 361.700 C 74.751 363.009,74.429 366.382,74.117 366.189 C 73.881 366.044,73.734 366.695,73.734 367.886 C 73.734 368.949,73.583 369.819,73.398 369.819 C 73.213 369.819,73.033 371.639,72.997 373.864 C 72.953 376.606,73.062 377.830,73.333 377.662 C 73.564 377.520,73.734 377.751,73.734 378.208 C 73.734 378.644,74.379 379.643,75.167 380.427 L 76.600 381.853 81.212 381.853 C 85.104 381.853,85.928 381.748,86.496 381.181 C 86.865 380.811,87.326 380.606,87.519 380.726 C 87.712 380.845,87.870 380.761,87.870 380.538 C 87.870 380.316,88.214 380.134,88.634 380.134 C 89.054 380.134,89.398 379.962,89.398 379.752 C 89.398 379.542,89.742 379.370,90.162 379.370 C 90.583 379.370,90.928 379.241,90.929 379.083 C 90.933 378.762,92.765 377.841,93.402 377.841 C 93.628 377.841,94.062 377.498,94.365 377.077 C 94.668 376.657,95.097 376.313,95.319 376.313 C 95.541 376.313,96.717 375.798,97.932 375.167 C 99.147 374.537,100.389 374.021,100.691 374.021 C 100.994 374.021,101.242 373.763,101.242 373.448 C 101.242 373.130,101.581 372.875,102.006 372.875 C 102.426 372.875,102.770 372.703,102.770 372.493 C 102.770 372.283,103.114 372.111,103.534 372.111 C 103.954 372.111,104.298 371.939,104.298 371.729 C 104.298 371.519,104.642 371.347,105.062 371.347 C 105.482 371.347,105.826 371.175,105.826 370.965 C 105.826 370.755,106.170 370.583,106.590 370.583 C 107.011 370.583,107.354 370.411,107.354 370.201 C 107.354 369.990,107.660 369.819,108.034 369.819 C 108.408 369.819,108.962 369.475,109.265 369.054 C 109.567 368.634,110.121 368.290,110.495 368.290 C 110.869 368.290,111.175 368.118,111.175 367.908 C 111.175 367.698,111.519 367.526,111.939 367.526 C 112.359 367.526,112.703 367.354,112.703 367.144 C 112.703 366.934,113.133 366.762,113.658 366.762 C 114.183 366.762,114.613 366.590,114.613 366.380 C 114.613 366.170,114.957 365.998,115.377 365.998 C 115.798 365.998,116.141 365.826,116.141 365.616 C 116.141 365.406,116.485 365.234,116.905 365.234 C 117.345 365.234,117.670 364.979,117.670 364.635 C 117.670 364.210,117.891 364.107,118.434 364.279 C 118.872 364.418,119.198 364.348,119.198 364.114 C 119.198 363.889,119.542 363.706,119.962 363.706 C 120.382 363.706,120.726 363.534,120.726 363.324 C 120.726 363.114,121.070 362.942,121.490 362.942 C 121.910 362.942,122.254 362.770,122.254 362.560 C 122.254 362.350,122.520 362.178,122.844 362.178 C 123.169 362.178,123.868 361.745,124.397 361.215 C 124.927 360.686,125.521 360.352,125.717 360.474 C 125.914 360.595,126.074 360.408,126.074 360.058 C 126.074 359.655,126.281 359.501,126.635 359.637 C 126.944 359.755,127.298 359.688,127.422 359.487 C 127.546 359.286,127.981 359.121,128.389 359.121 C 128.797 359.121,129.131 358.968,129.131 358.781 C 129.131 358.594,129.904 358.213,130.850 357.934 C 131.796 357.655,132.569 357.292,132.569 357.128 C 132.569 356.963,132.833 356.829,133.154 356.829 C 133.476 356.829,133.838 356.571,133.959 356.256 C 134.080 355.941,134.505 355.683,134.902 355.683 C 135.300 355.683,135.626 355.511,135.626 355.301 C 135.626 355.091,135.969 354.919,136.390 354.919 C 136.810 354.919,137.154 354.747,137.154 354.537 C 137.154 354.327,137.498 354.155,137.918 354.155 C 138.338 354.155,138.682 353.983,138.682 353.773 C 138.682 353.563,138.988 353.391,139.362 353.391 C 139.736 353.391,140.289 353.047,140.592 352.627 C 140.895 352.206,141.449 351.862,141.823 351.862 C 142.197 351.862,142.502 351.691,142.502 351.480 C 142.502 351.270,142.846 351.098,143.266 351.098 C 143.687 351.098,144.031 350.926,144.031 350.716 C 144.031 350.506,144.374 350.334,144.795 350.334 C 145.215 350.334,145.559 350.162,145.559 349.952 C 145.559 349.742,145.903 349.570,146.323 349.570 C 146.743 349.570,147.087 349.398,147.087 349.188 C 147.087 348.978,147.517 348.806,148.042 348.806 C 148.567 348.806,148.997 348.634,148.997 348.424 C 148.997 348.214,149.351 348.042,149.784 348.042 C 150.216 348.042,150.464 347.870,150.334 347.660 C 150.200 347.443,150.521 347.278,151.076 347.278 C 151.614 347.278,152.053 347.106,152.053 346.896 C 152.053 346.686,152.397 346.514,152.818 346.514 C 153.238 346.514,153.582 346.342,153.582 346.132 C 153.582 345.922,153.888 345.750,154.261 345.750 C 154.635 345.750,155.189 345.406,155.492 344.986 C 155.795 344.565,156.359 344.222,156.745 344.222 C 157.131 344.222,157.341 344.050,157.211 343.840 C 157.077 343.623,157.398 343.457,157.953 343.457 C 158.490 343.457,158.930 343.286,158.930 343.075 C 158.930 342.865,159.274 342.693,159.694 342.693 C 160.115 342.693,160.458 342.521,160.458 342.311 C 160.458 342.101,160.802 341.929,161.223 341.929 C 161.643 341.929,161.987 341.757,161.987 341.547 C 161.987 341.337,162.330 341.165,162.751 341.165 C 163.171 341.165,163.515 340.993,163.515 340.783 C 163.515 340.573,163.859 340.401,164.279 340.401 C 164.699 340.401,165.043 340.229,165.043 340.019 C 165.043 339.809,165.289 339.637,165.589 339.637 C 165.889 339.637,166.403 339.368,166.732 339.040 C 167.061 338.711,167.485 338.538,167.674 338.655 C 167.864 338.773,168.118 338.612,168.238 338.298 C 168.359 337.984,168.769 337.727,169.149 337.727 C 169.530 337.727,170.089 337.383,170.392 336.963 C 170.694 336.543,171.248 336.199,171.622 336.199 C 171.996 336.199,172.303 336.070,172.305 335.912 C 172.308 335.569,174.158 334.670,174.861 334.670 C 175.135 334.670,175.358 334.499,175.358 334.288 C 175.358 334.078,175.702 333.906,176.122 333.906 C 176.543 333.906,176.886 333.734,176.886 333.524 C 176.886 333.314,177.230 333.142,177.650 333.142 C 178.071 333.142,178.415 332.970,178.415 332.760 C 178.415 332.550,178.758 332.378,179.179 332.378 C 179.599 332.378,179.943 332.206,179.943 331.996 C 179.943 331.786,180.287 331.614,180.707 331.614 C 181.127 331.614,181.471 331.442,181.471 331.232 C 181.471 331.022,181.901 330.850,182.426 330.850 C 182.951 330.850,183.381 330.678,183.381 330.468 C 183.381 330.258,183.725 330.086,184.145 330.086 C 184.604 330.086,184.909 329.831,184.909 329.449 C 184.909 329.099,185.016 328.919,185.146 329.049 C 185.276 329.179,185.634 329.034,185.941 328.727 C 186.248 328.420,186.657 328.266,186.850 328.386 C 187.043 328.505,187.203 328.464,187.205 328.294 C 187.208 327.933,189.035 327.030,189.761 327.030 C 190.034 327.030,190.258 326.858,190.258 326.648 C 190.258 326.437,190.602 326.266,191.022 326.266 C 191.442 326.266,191.786 326.094,191.786 325.883 C 191.786 325.673,192.056 325.501,192.386 325.501 C 192.717 325.501,193.246 325.242,193.563 324.925 C 193.880 324.608,194.298 324.446,194.491 324.565 C 194.684 324.685,194.842 324.600,194.842 324.378 C 194.842 324.155,195.186 323.973,195.606 323.973 C 196.046 323.973,196.371 323.719,196.371 323.374 C 196.371 322.949,196.592 322.846,197.135 323.018 C 197.573 323.157,197.899 323.087,197.899 322.853 C 197.899 322.629,198.243 322.445,198.663 322.445 C 199.083 322.445,199.427 322.273,199.427 322.063 C 199.427 321.853,199.736 321.681,200.115 321.681 C 200.996 321.681,202.858 322.540,202.862 322.948 C 202.864 323.120,203.209 323.152,203.629 323.018 C 204.172 322.846,204.394 322.949,204.394 323.374 C 204.394 323.719,204.718 323.973,205.158 323.973 C 205.578 323.973,205.922 324.145,205.922 324.355 C 205.922 324.565,206.266 324.737,206.686 324.737 C 207.106 324.737,207.450 324.909,207.450 325.119 C 207.450 325.330,207.727 325.501,208.066 325.501 C 208.748 325.501,211.769 327.054,211.971 327.507 C 212.041 327.665,212.428 327.794,212.830 327.794 C 213.233 327.794,213.563 327.966,213.563 328.176 C 213.563 328.386,214.021 328.558,214.581 328.558 C 215.142 328.558,215.494 328.664,215.364 328.794 C 214.981 329.177,216.114 330.086,216.974 330.086 C 217.409 330.086,217.765 330.258,217.765 330.468 C 217.765 330.678,218.109 330.850,218.529 330.850 C 218.949 330.850,219.293 331.022,219.293 331.232 C 219.293 331.442,219.637 331.614,220.057 331.614 C 220.478 331.614,220.821 331.786,220.821 331.996 C 220.821 332.206,221.165 332.378,221.585 332.378 C 222.006 332.378,222.350 332.550,222.350 332.760 C 222.350 332.970,222.693 333.142,223.114 333.142 C 223.534 333.142,223.878 333.314,223.878 333.524 C 223.878 333.734,224.222 333.906,224.642 333.906 C 225.062 333.906,225.406 334.078,225.406 334.288 C 225.406 334.499,225.750 334.670,226.170 334.670 C 226.590 334.670,226.934 334.842,226.934 335.053 C 226.934 335.263,227.278 335.435,227.698 335.435 C 228.118 335.435,228.462 335.606,228.462 335.817 C 228.462 336.027,228.806 336.199,229.226 336.199 C 229.647 336.199,229.990 336.371,229.990 336.581 C 229.990 336.791,230.258 336.963,230.586 336.963 C 230.914 336.963,231.075 337.135,230.946 337.345 C 230.816 337.555,231.045 337.727,231.455 337.727 C 231.865 337.727,232.299 337.982,232.418 338.293 C 232.541 338.614,232.889 338.763,233.220 338.636 C 233.562 338.505,233.902 338.666,234.040 339.024 C 234.169 339.361,234.600 339.637,234.998 339.637 C 235.396 339.637,235.721 339.809,235.721 340.019 C 235.721 340.229,236.065 340.401,236.485 340.401 C 236.905 340.401,237.249 340.583,237.249 340.806 C 237.249 341.028,237.407 341.113,237.601 340.993 C 237.794 340.874,238.211 341.036,238.528 341.353 C 238.845 341.670,239.375 341.929,239.705 341.929 C 240.035 341.929,240.306 342.101,240.306 342.311 C 240.306 342.521,240.649 342.693,241.070 342.693 C 241.490 342.693,241.834 342.865,241.834 343.075 C 241.834 343.286,242.274 343.457,242.811 343.457 C 243.366 343.457,243.687 343.623,243.553 343.840 C 243.423 344.050,243.671 344.222,244.104 344.222 C 244.536 344.222,244.890 344.412,244.890 344.645 C 244.890 344.877,245.139 344.972,245.444 344.855 C 245.814 344.713,245.927 344.826,245.785 345.196 C 245.641 345.572,245.831 345.750,246.377 345.750 C 246.820 345.750,247.182 345.922,247.182 346.132 C 247.182 346.342,247.526 346.514,247.947 346.514 C 248.367 346.514,248.711 346.686,248.711 346.896 C 248.711 347.106,249.140 347.278,249.666 347.278 C 250.191 347.278,250.621 347.450,250.621 347.660 C 250.621 347.870,250.879 348.042,251.194 348.042 C 251.509 348.042,251.767 348.214,251.767 348.424 C 251.767 348.634,252.197 348.806,252.722 348.806 C 253.247 348.806,253.677 348.978,253.677 349.188 C 253.677 349.398,254.021 349.570,254.441 349.570 C 254.862 349.570,255.205 349.742,255.205 349.952 C 255.205 350.162,255.549 350.334,255.969 350.334 C 256.390 350.334,256.734 350.506,256.734 350.716 C 256.734 350.926,257.077 351.098,257.498 351.098 C 257.918 351.098,258.262 351.270,258.262 351.480 C 258.262 351.691,258.568 351.862,258.941 351.862 C 259.315 351.862,259.869 352.206,260.172 352.627 C 260.475 353.047,261.029 353.391,261.402 353.391 C 261.776 353.391,262.082 353.563,262.082 353.773 C 262.082 353.983,262.306 354.155,262.579 354.155 C 263.282 354.155,265.132 355.053,265.136 355.396 C 265.137 355.554,265.578 355.683,266.116 355.683 C 266.654 355.683,266.991 355.850,266.865 356.054 C 266.739 356.258,267.072 356.534,267.606 356.668 C 268.140 356.802,268.577 357.065,268.577 357.252 C 268.577 357.440,268.921 357.593,269.341 357.593 C 269.761 357.593,270.105 357.765,270.105 357.975 C 270.105 358.185,270.449 358.357,270.869 358.357 C 271.289 358.357,271.633 358.539,271.633 358.762 C 271.633 358.984,271.791 359.069,271.984 358.949 C 272.178 358.830,272.595 358.991,272.911 359.308 C 273.228 359.624,273.757 359.779,274.088 359.652 C 274.482 359.501,274.690 359.634,274.690 360.036 C 274.690 360.373,274.995 360.649,275.369 360.649 C 275.743 360.649,276.297 360.993,276.600 361.414 C 276.903 361.834,277.456 362.178,277.830 362.178 C 278.204 362.178,278.510 362.350,278.510 362.560 C 278.510 362.770,278.854 362.942,279.274 362.942 C 279.694 362.942,280.038 363.114,280.038 363.324 C 280.038 363.534,280.382 363.706,280.802 363.706 C 281.223 363.706,281.566 363.889,281.566 364.114 C 281.566 364.348,281.892 364.418,282.330 364.279 C 282.873 364.107,283.095 364.210,283.095 364.635 C 283.095 364.965,283.318 365.234,283.591 365.234 C 284.294 365.234,286.144 366.133,286.148 366.476 C 286.150 366.633,286.581 366.762,287.106 366.762 C 287.631 366.762,288.061 366.934,288.061 367.144 C 288.061 367.354,288.405 367.526,288.825 367.526 C 289.245 367.526,289.589 367.698,289.589 367.908 C 289.589 368.118,289.895 368.290,290.269 368.290 C 290.643 368.290,291.197 368.634,291.500 369.054 C 291.802 369.475,292.356 369.819,292.730 369.819 C 293.104 369.819,293.410 369.990,293.410 370.201 C 293.410 370.411,293.754 370.583,294.174 370.583 C 294.594 370.583,294.938 370.755,294.938 370.965 C 294.938 371.175,295.282 371.347,295.702 371.347 C 296.122 371.347,296.466 371.519,296.466 371.729 C 296.466 371.939,296.698 372.111,296.980 372.111 C 297.788 372.111,299.904 373.270,299.904 373.712 C 299.904 373.931,300.235 374.024,300.640 373.918 C 301.184 373.776,301.317 373.878,301.151 374.312 C 300.975 374.770,301.140 374.857,301.908 374.710 C 302.624 374.573,302.837 374.662,302.694 375.036 C 302.567 375.366,302.786 375.549,303.307 375.549 C 304.202 375.549,305.506 376.195,306.395 377.077 C 306.713 377.393,307.230 377.706,307.545 377.775 C 307.861 377.843,308.176 378.058,308.246 378.252 C 308.316 378.447,308.799 378.606,309.319 378.606 C 309.852 378.606,310.162 378.772,310.029 378.988 C 309.899 379.198,310.147 379.370,310.579 379.370 C 311.012 379.370,311.366 379.542,311.366 379.752 C 311.366 379.962,311.710 380.134,312.130 380.134 C 312.550 380.134,312.894 380.306,312.894 380.516 C 312.894 380.726,313.223 380.898,313.626 380.898 C 314.029 380.898,314.425 381.099,314.507 381.344 C 314.889 382.491,324.737 382.161,324.737 381.002 C 324.737 380.664,324.844 380.495,324.974 380.625 C 325.273 380.924,325.920 380.242,326.617 378.892 C 326.915 378.314,327.302 377.841,327.476 377.841 C 327.651 377.841,327.794 376.026,327.794 373.807 C 327.794 371.503,327.646 369.865,327.449 369.987 C 327.109 370.197,326.828 368.519,326.411 363.799 C 326.295 362.484,326.043 361.506,325.851 361.625 C 325.653 361.747,325.501 360.752,325.501 359.335 C 325.501 357.919,325.335 356.829,325.119 356.829 C 324.903 356.829,324.737 355.733,324.737 354.305 C 324.737 352.442,324.612 351.829,324.260 351.965 C 323.901 352.104,323.814 351.545,323.910 349.714 C 323.993 348.138,323.892 347.278,323.624 347.278 C 323.372 347.278,323.209 346.379,323.209 344.986 C 323.209 343.712,323.039 342.693,322.827 342.693 C 322.617 342.693,322.445 341.834,322.445 340.783 C 322.445 339.340,322.305 338.873,321.872 338.873 C 321.421 338.873,321.299 338.342,321.299 336.390 C 321.299 334.989,321.132 333.906,320.917 333.906 C 320.705 333.906,320.535 332.888,320.535 331.614 C 320.535 330.341,320.365 329.322,320.153 329.322 C 319.941 329.322,319.771 328.303,319.771 327.030 C 319.771 325.756,319.601 324.737,319.389 324.737 C 319.173 324.737,319.007 323.655,319.007 322.254 C 319.007 320.853,318.840 319.771,318.625 319.771 C 318.415 319.771,318.243 319.007,318.243 318.074 C 318.243 317.141,318.071 316.271,317.861 316.141 C 317.650 316.011,317.479 314.884,317.479 313.636 C 317.479 312.377,317.308 311.366,317.096 311.366 C 316.884 311.366,316.714 310.347,316.714 309.074 C 316.714 307.800,316.545 306.781,316.332 306.781 C 316.122 306.781,315.950 305.870,315.950 304.756 C 315.950 303.643,315.788 302.568,315.590 302.369 C 315.392 302.169,315.192 300.931,315.146 299.618 C 315.099 298.305,314.917 297.230,314.742 297.230 C 314.566 297.230,314.422 296.295,314.422 295.151 C 314.422 294.008,314.250 292.967,314.040 292.837 C 313.830 292.707,313.658 291.846,313.658 290.923 C 313.658 289.769,313.464 289.136,313.035 288.897 C 312.533 288.616,312.445 288.093,312.582 286.203 C 312.675 284.914,312.612 283.859,312.441 283.859 C 312.270 283.859,312.130 282.841,312.130 281.598 C 312.130 280.355,311.968 279.280,311.769 279.210 C 311.571 279.140,311.369 278.095,311.322 276.886 C 311.274 275.678,311.093 274.690,310.918 274.690 C 310.744 274.690,310.602 273.658,310.602 272.397 C 310.602 271.124,310.432 270.105,310.220 270.105 C 310.005 270.105,309.838 269.033,309.838 267.654 C 309.838 266.305,309.680 265.145,309.488 265.075 C 309.296 265.005,309.090 264.174,309.030 263.228 C 308.969 262.283,308.793 261.419,308.638 261.310 C 308.483 261.200,308.316 260.126,308.267 258.922 C 308.219 257.718,308.036 256.734,307.862 256.734 C 307.688 256.734,307.545 255.702,307.545 254.441 C 307.545 253.168,307.376 252.149,307.163 252.149 C 306.947 252.149,306.781 251.059,306.781 249.643 C 306.781 248.070,306.639 247.225,306.399 247.373 C 306.163 247.519,306.017 246.856,306.017 245.641 C 306.017 243.998,306.143 243.640,306.777 243.474 C 307.195 243.365,307.443 243.123,307.328 242.937 C 307.212 242.750,307.386 242.598,307.714 242.598 C 308.041 242.598,308.309 242.311,308.309 241.961 C 308.309 241.611,308.414 241.429,308.541 241.556 C 308.844 241.859,309.810 240.966,309.584 240.592 C 309.489 240.435,309.598 240.306,309.828 240.306 C 310.057 240.306,310.841 239.710,311.570 238.981 C 312.298 238.253,312.894 237.469,312.894 237.239 C 312.894 237.010,313.066 236.928,313.276 237.058 C 313.486 237.188,313.658 237.112,313.658 236.890 C 313.658 236.667,313.961 236.485,314.331 236.485 C 314.702 236.485,315.347 236.024,315.764 235.460 C 316.723 234.165,322.333 228.462,322.647 228.462 C 323.045 228.462,323.973 227.395,323.973 226.939 C 323.973 226.701,324.102 226.577,324.260 226.662 C 324.638 226.867,331.622 219.810,331.330 219.518 C 331.206 219.395,331.318 219.293,331.578 219.293 C 332.067 219.293,333.142 218.381,333.142 217.967 C 333.142 217.693,338.546 212.367,340.514 210.702 C 341.256 210.075,341.782 209.430,341.682 209.270 C 341.583 209.109,341.701 208.978,341.945 208.978 C 342.188 208.978,342.869 208.462,343.457 207.832 C 344.046 207.202,344.722 206.686,344.958 206.686 C 345.502 206.686,348.577 203.631,348.913 202.757 C 349.051 202.396,349.349 202.101,349.576 202.101 C 349.998 202.101,351.862 200.397,351.862 200.010 C 351.862 199.723,356.752 194.842,357.040 194.842 C 357.467 194.842,358.320 193.787,358.084 193.551 C 357.954 193.421,358.134 193.314,358.485 193.314 C 358.835 193.314,359.078 193.160,359.026 192.970 C 358.973 192.781,359.102 192.576,359.312 192.514 C 359.940 192.330,360.582 191.616,360.396 191.309 C 360.300 191.151,360.409 191.022,360.637 191.022 C 361.286 191.022,364.532 187.612,364.277 187.198 C 364.148 186.990,364.308 186.928,364.641 187.056 C 365.031 187.205,365.234 187.065,365.234 186.647 C 365.234 186.297,365.363 186.088,365.521 186.184 C 365.816 186.363,366.998 185.276,366.896 184.919 C 366.864 184.808,366.993 184.761,367.182 184.814 C 367.372 184.866,367.526 184.623,367.526 184.273 C 367.526 183.922,367.633 183.742,367.763 183.872 C 367.999 184.108,369.054 183.255,369.054 182.828 C 369.054 182.485,373.963 177.650,374.312 177.650 C 374.479 177.650,374.864 177.307,375.167 176.886 C 375.470 176.466,375.950 176.122,376.234 176.122 C 376.744 176.122,377.881 175.194,377.855 174.799 C 377.848 174.686,377.929 174.596,378.036 174.598 C 378.405 174.604,383.049 169.781,383.298 169.132 C 383.436 168.774,383.811 168.481,384.133 168.481 C 384.455 168.481,384.718 168.213,384.718 167.886 C 384.718 167.558,384.850 167.371,385.010 167.470 C 385.170 167.570,385.815 167.046,386.443 166.306 C 388.179 164.261,391.135 161.223,391.389 161.223 C 391.817 161.223,395.033 157.803,395.033 157.348 C 395.033 157.098,395.138 156.998,395.267 157.126 C 395.395 157.254,396.512 156.328,397.750 155.067 L 400.000 152.774 400.000 147.679 L 400.000 142.583 398.892 141.397 C 398.202 140.658,397.408 140.210,396.790 140.210 C 396.244 140.210,395.798 140.038,395.798 139.828 C 395.798 139.618,394.948 139.446,393.910 139.446 C 392.872 139.446,391.916 139.274,391.786 139.064 C 391.656 138.854,390.357 138.682,388.898 138.682 C 387.385 138.682,386.246 138.518,386.246 138.300 C 386.246 138.082,385.100 137.918,383.572 137.918 C 382.044 137.918,380.898 137.754,380.898 137.536 C 380.898 137.318,379.752 137.154,378.223 137.154 C 376.695 137.154,375.549 136.990,375.549 136.772 C 375.549 136.551,374.339 136.390,372.684 136.390 C 371.028 136.390,369.819 136.228,369.819 136.008 C 369.819 135.789,368.672 135.626,367.144 135.626 C 365.616 135.626,364.470 135.462,364.470 135.244 C 364.470 135.031,363.451 134.862,362.178 134.862 C 360.904 134.862,359.885 134.692,359.885 134.479 C 359.885 134.259,358.676 134.097,357.020 134.097 C 355.365 134.097,354.155 133.936,354.155 133.715 C 354.155 133.497,353.009 133.333,351.480 133.333 C 349.952 133.333,348.806 133.170,348.806 132.951 C 348.806 132.733,347.667 132.569,346.154 132.569 C 344.696 132.569,343.396 132.397,343.266 132.187 C 343.137 131.977,341.837 131.805,340.379 131.805 C 338.865 131.805,337.727 131.641,337.727 131.423 C 337.727 131.205,336.577 131.041,335.041 131.041 C 333.244 131.041,332.294 130.883,332.172 130.564 C 332.046 130.234,331.281 130.126,329.707 130.215 C 328.001 130.312,327.271 130.191,326.818 129.738 C 326.389 129.309,325.489 129.131,323.755 129.131 C 322.404 129.131,321.299 128.974,321.299 128.781 C 321.299 128.589,320.181 128.331,318.816 128.208 C 317.450 128.085,315.215 127.884,313.849 127.761 C 312.483 127.638,311.366 127.423,311.367 127.284 C 311.367 127.144,310.164 127.087,308.692 127.156 C 307.206 127.227,306.017 127.125,306.017 126.928 C 306.017 126.732,304.792 126.537,303.294 126.493 C 301.521 126.441,300.378 126.221,300.019 125.862 C 299.663 125.505,298.667 125.310,297.203 125.310 C 295.948 125.310,294.938 125.140,294.938 124.928 C 294.938 124.710,293.799 124.546,292.286 124.546 C 290.828 124.546,289.528 124.374,289.398 124.164 C 289.268 123.954,287.969 123.782,286.510 123.782 C 284.997 123.782,283.859 123.618,283.859 123.400 C 283.859 123.182,282.713 123.018,281.184 123.018 C 279.656 123.018,278.510 122.854,278.510 122.636 C 278.510 122.415,277.300 122.254,275.645 122.254 C 273.989 122.254,272.779 122.093,272.779 121.872 C 272.779 121.660,271.761 121.490,270.487 121.490 C 269.214 121.490,268.195 121.320,268.195 121.108 C 268.195 120.898,267.550 120.725,266.762 120.723 C 265.337 120.720,264.374 119.689,264.374 118.166 C 264.374 117.893,264.202 117.670,263.992 117.670 C 263.782 117.670,263.610 117.326,263.610 116.905 C 263.610 116.485,263.438 116.141,263.228 116.141 C 263.018 116.141,262.846 115.798,262.846 115.377 C 262.846 114.957,262.674 114.613,262.464 114.613 C 262.254 114.613,262.082 114.269,262.082 113.849 C 262.082 113.429,261.910 113.085,261.700 113.085 C 261.490 113.085,261.318 112.741,261.318 112.321 C 261.318 111.901,261.146 111.557,260.936 111.557 C 260.726 111.557,260.554 111.127,260.554 110.602 C 260.554 110.076,260.382 109.647,260.172 109.647 C 259.962 109.647,259.790 109.376,259.790 109.046 C 259.790 108.716,259.530 108.186,259.213 107.869 C 258.896 107.552,258.734 107.135,258.854 106.942 C 258.973 106.748,258.889 106.590,258.666 106.590 C 258.444 106.590,258.262 106.236,258.262 105.804 C 258.262 105.371,258.090 105.123,257.880 105.253 C 257.663 105.387,257.498 105.066,257.498 104.512 C 257.498 103.974,257.326 103.534,257.116 103.534 C 256.905 103.534,256.734 103.190,256.734 102.770 C 256.734 102.331,256.479 102.006,256.135 102.006 C 255.698 102.006,255.606 101.786,255.794 101.194 C 255.967 100.647,255.913 100.467,255.628 100.643 C 255.361 100.808,255.205 100.545,255.205 99.927 C 255.205 99.389,255.033 98.949,254.823 98.949 C 254.613 98.949,254.441 98.606,254.441 98.185 C 254.441 97.765,254.312 97.420,254.155 97.418 C 253.812 97.415,252.913 95.565,252.913 94.862 C 252.913 94.588,252.655 94.365,252.340 94.365 C 251.980 94.365,251.767 94.002,251.767 93.387 C 251.767 92.833,251.602 92.512,251.385 92.646 C 251.168 92.780,251.003 92.459,251.003 91.904 C 251.003 91.366,250.874 90.925,250.716 90.923 C 250.373 90.920,249.475 89.070,249.475 88.367 C 249.475 88.094,249.303 87.870,249.093 87.870 C 248.883 87.870,248.711 87.450,248.711 86.938 C 248.711 86.425,248.539 85.899,248.329 85.769 C 248.118 85.639,247.947 85.199,247.947 84.791 C 247.947 84.383,247.775 84.050,247.564 84.050 C 247.354 84.050,247.182 83.706,247.182 83.286 C 247.182 82.865,247.011 82.521,246.800 82.521 C 246.590 82.521,246.418 82.178,246.418 81.757 C 246.418 81.337,246.246 80.993,246.036 80.993 C 245.826 80.993,245.654 80.649,245.654 80.229 C 245.654 79.809,245.482 79.465,245.272 79.465 C 245.062 79.465,244.890 79.035,244.890 78.510 C 244.890 77.985,244.718 77.555,244.508 77.555 C 244.298 77.555,244.126 77.211,244.126 76.791 C 244.126 76.371,243.997 76.025,243.840 76.024 C 243.496 76.020,242.598 74.170,242.598 73.467 C 242.598 73.194,242.426 72.970,242.216 72.970 C 242.006 72.970,241.834 72.627,241.834 72.206 C 241.834 71.786,241.662 71.442,241.452 71.442 C 241.242 71.442,241.070 71.088,241.070 70.656 C 241.070 70.223,240.898 69.975,240.688 70.105 C 240.471 70.239,240.306 69.918,240.306 69.364 C 240.306 68.826,240.134 68.386,239.924 68.386 C 239.713 68.386,239.542 68.042,239.542 67.622 C 239.542 67.202,239.370 66.858,239.160 66.858 C 238.949 66.858,238.777 66.514,238.777 66.094 C 238.777 65.673,238.606 65.330,238.395 65.330 C 238.185 65.330,238.013 64.986,238.013 64.565 C 238.013 64.145,237.841 63.801,237.631 63.801 C 237.421 63.801,237.249 63.457,237.249 63.037 C 237.249 62.617,237.119 62.273,236.961 62.273 C 236.694 62.273,236.142 61.160,235.577 59.479 C 235.449 59.098,235.171 58.893,234.960 59.024 C 234.739 59.161,234.575 58.836,234.575 58.262 C 234.575 57.692,234.410 57.363,234.193 57.498 C 233.976 57.632,233.811 57.311,233.811 56.756 C 233.811 56.218,233.639 55.778,233.429 55.778 C 233.219 55.778,233.047 55.435,233.047 55.014 C 233.047 54.594,232.875 54.250,232.665 54.250 C 232.455 54.250,232.283 53.906,232.283 53.486 C 232.283 53.066,232.111 52.722,231.901 52.722 C 231.691 52.722,231.519 52.378,231.519 51.958 C 231.519 51.538,231.347 51.194,231.137 51.194 C 230.926 51.194,230.755 50.850,230.755 50.430 C 230.755 50.010,230.583 49.666,230.372 49.666 C 230.162 49.666,229.990 49.322,229.990 48.902 C 229.990 48.481,229.819 48.138,229.608 48.138 C 229.398 48.138,229.226 47.794,229.226 47.373 C 229.226 46.953,229.054 46.609,228.844 46.609 C 228.634 46.609,228.462 46.266,228.462 45.845 C 228.462 45.425,228.290 45.081,228.080 45.081 C 227.870 45.081,227.698 44.737,227.698 44.317 C 227.698 43.897,227.526 43.553,227.316 43.553 C 227.106 43.553,226.934 43.219,226.934 42.811 C 226.934 42.404,226.762 41.964,226.552 41.834 C 226.342 41.704,226.170 41.264,226.170 40.856 C 226.170 40.448,225.998 40.115,225.788 40.115 C 225.578 40.115,225.406 39.771,225.406 39.351 C 225.406 38.930,225.234 38.586,225.024 38.586 C 224.814 38.586,224.642 38.243,224.642 37.822 C 224.642 37.402,224.470 37.058,224.260 37.058 C 224.050 37.058,223.878 36.714,223.878 36.294 C 223.878 35.874,223.706 35.530,223.496 35.530 C 223.286 35.530,223.114 35.186,223.114 34.766 C 223.114 34.346,222.942 34.002,222.732 34.002 C 222.521 34.002,222.350 33.648,222.350 33.215 C 222.350 32.783,222.178 32.535,221.968 32.665 C 221.751 32.799,221.585 32.478,221.585 31.923 C 221.585 31.386,221.414 30.946,221.203 30.946 C 220.993 30.946,220.821 30.602,220.821 30.181 C 220.821 29.761,220.649 29.417,220.439 29.417 C 220.229 29.417,220.057 29.154,220.057 28.832 C 220.057 28.511,219.783 28.142,219.447 28.013 C 219.007 27.844,218.898 27.477,219.056 26.688 C 219.177 26.085,219.108 25.597,218.902 25.597 C 218.697 25.597,218.529 25.271,218.529 24.874 C 218.529 24.476,218.271 24.052,217.956 23.931 C 217.641 23.810,217.383 23.361,217.383 22.935 C 217.383 22.508,217.254 22.157,217.096 22.156 C 216.753 22.152,215.855 20.302,215.855 19.599 C 215.855 19.326,215.683 19.102,215.473 19.102 C 215.263 19.102,215.091 18.758,215.091 18.338 C 215.091 17.918,214.962 17.573,214.804 17.571 C 214.461 17.567,213.563 15.717,213.563 15.015 C 213.563 14.741,213.391 14.518,213.181 14.518 C 212.970 14.518,212.798 14.174,212.798 13.754 C 212.798 13.333,212.627 12.989,212.416 12.989 C 212.206 12.989,212.034 12.646,212.034 12.225 C 212.034 11.805,211.862 11.461,211.652 11.461 C 211.442 11.461,211.270 11.117,211.270 10.697 C 211.270 10.277,211.098 9.933,210.888 9.933 C 210.678 9.933,210.506 9.599,210.506 9.192 C 210.506 8.784,210.334 8.344,210.124 8.214 C 209.914 8.084,209.742 7.634,209.742 7.214 C 209.742 6.793,209.570 6.556,209.360 6.686 C 209.143 6.820,208.978 6.499,208.978 5.944 C 208.978 5.407,208.806 4.967,208.596 4.967 C 208.386 4.967,208.214 4.703,208.214 4.381 C 208.214 3.854,205.528 0.820,205.266 1.051 C 205.206 1.103,205.201 1.019,205.253 0.863 C 205.470 0.220,199.342 -0.205,196.798 0.276 " stroke="none" fill="#9444cc" fill-rule="evenodd"></path><path id="path1" d="M96.944 126.351 C 97.627 126.436,98.744 126.436,99.427 126.351 C 100.110 126.266,99.551 126.197,98.185 126.197 C 96.819 126.197,96.261 126.266,96.944 126.351 M300.320 126.236 C 300.598 126.513,305.622 126.597,305.890 126.329 C 306.030 126.189,304.798 126.074,303.152 126.074 C 301.506 126.074,300.232 126.147,300.320 126.236 M92.455 126.839 L 89.971 127.089 92.550 127.155 C 94.059 127.193,95.129 127.062,95.129 126.839 C 95.129 126.628,95.086 126.486,95.033 126.522 C 94.981 126.559,93.820 126.701,92.455 126.839 M307.059 127.114 C 307.738 127.199,308.941 127.200,309.734 127.117 C 310.526 127.035,309.971 126.966,308.500 126.964 C 307.030 126.962,306.381 127.030,307.059 127.114 M73.734 129.449 C 73.734 129.734,72.870 129.921,71.347 129.967 L 68.959 130.039 71.211 130.179 C 73.304 130.309,74.610 129.879,73.996 129.265 C 73.852 129.121,73.734 129.204,73.734 129.449 M328.080 130.171 C 328.763 130.256,329.881 130.256,330.564 130.171 C 331.246 130.087,330.688 130.017,329.322 130.017 C 327.956 130.017,327.397 130.087,328.080 130.171 M94.851 245.654 C 94.851 246.600,94.925 246.987,95.017 246.514 C 95.108 246.041,95.108 245.267,95.017 244.795 C 94.925 244.322,94.851 244.709,94.851 245.654 M92.569 259.408 C 92.569 260.564,92.641 261.036,92.728 260.458 C 92.816 259.881,92.816 258.935,92.728 258.357 C 92.641 257.779,92.569 258.252,92.569 259.408 M312.630 286.724 C 312.632 287.985,312.704 288.454,312.789 287.768 C 312.874 287.081,312.872 286.050,312.785 285.475 C 312.698 284.901,312.628 285.463,312.630 286.724 M76.145 354.728 C 76.147 355.989,76.219 356.458,76.304 355.772 C 76.389 355.085,76.387 354.053,76.300 353.479 C 76.213 352.905,76.143 353.467,76.145 354.728 " stroke="none" fill="#9844cc" fill-rule="evenodd"></path><path id="path2" d="M96.944 126.351 C 97.627 126.436,98.744 126.436,99.427 126.351 C 100.110 126.266,99.551 126.197,98.185 126.197 C 96.819 126.197,96.261 126.266,96.944 126.351 M300.320 126.236 C 300.598 126.513,305.622 126.597,305.890 126.329 C 306.030 126.189,304.798 126.074,303.152 126.074 C 301.506 126.074,300.232 126.147,300.320 126.236 M92.455 126.839 L 89.971 127.089 92.550 127.155 C 94.059 127.193,95.129 127.062,95.129 126.839 C 95.129 126.628,95.086 126.486,95.033 126.522 C 94.981 126.559,93.820 126.701,92.455 126.839 M307.059 127.114 C 307.738 127.199,308.941 127.200,309.734 127.117 C 310.526 127.035,309.971 126.966,308.500 126.964 C 307.030 126.962,306.381 127.030,307.059 127.114 M73.734 129.449 C 73.734 129.734,72.870 129.921,71.347 129.967 L 68.959 130.039 71.211 130.179 C 73.304 130.309,74.610 129.879,73.996 129.265 C 73.852 129.121,73.734 129.204,73.734 129.449 M328.080 130.171 C 328.763 130.256,329.881 130.256,330.564 130.171 C 331.246 130.087,330.688 130.017,329.322 130.017 C 327.956 130.017,327.397 130.087,328.080 130.171 M94.851 245.654 C 94.851 246.600,94.925 246.987,95.017 246.514 C 95.108 246.041,95.108 245.267,95.017 244.795 C 94.925 244.322,94.851 244.709,94.851 245.654 M92.569 259.408 C 92.569 260.564,92.641 261.036,92.728 260.458 C 92.816 259.881,92.816 258.935,92.728 258.357 C 92.641 257.779,92.569 258.252,92.569 259.408 M312.630 286.724 C 312.632 287.985,312.704 288.454,312.789 287.768 C 312.874 287.081,312.872 286.050,312.785 285.475 C 312.698 284.901,312.628 285.463,312.630 286.724 M76.145 354.728 C 76.147 355.989,76.219 356.458,76.304 355.772 C 76.389 355.085,76.387 354.053,76.300 353.479 C 76.213 352.905,76.143 353.467,76.145 354.728 " stroke="none" fill="#9844cc" fill-rule="evenodd"></path><path id="path3" d="M96.944 126.351 C 97.627 126.436,98.744 126.436,99.427 126.351 C 100.110 126.266,99.551 126.197,98.185 126.197 C 96.819 126.197,96.261 126.266,96.944 126.351 M300.320 126.236 C 300.598 126.513,305.622 126.597,305.890 126.329 C 306.030 126.189,304.798 126.074,303.152 126.074 C 301.506 126.074,300.232 126.147,300.320 126.236 M92.455 126.839 L 89.971 127.089 92.550 127.155 C 94.059 127.193,95.129 127.062,95.129 126.839 C 95.129 126.628,95.086 126.486,95.033 126.522 C 94.981 126.559,93.820 126.701,92.455 126.839 M307.059 127.114 C 307.738 127.199,308.941 127.200,309.734 127.117 C 310.526 127.035,309.971 126.966,308.500 126.964 C 307.030 126.962,306.381 127.030,307.059 127.114 M73.734 129.449 C 73.734 129.734,72.870 129.921,71.347 129.967 L 68.959 130.039 71.211 130.179 C 73.304 130.309,74.610 129.879,73.996 129.265 C 73.852 129.121,73.734 129.204,73.734 129.449 M328.080 130.171 C 328.763 130.256,329.881 130.256,330.564 130.171 C 331.246 130.087,330.688 130.017,329.322 130.017 C 327.956 130.017,327.397 130.087,328.080 130.171 M94.851 245.654 C 94.851 246.600,94.925 246.987,95.017 246.514 C 95.108 246.041,95.108 245.267,95.017 244.795 C 94.925 244.322,94.851 244.709,94.851 245.654 M92.569 259.408 C 92.569 260.564,92.641 261.036,92.728 260.458 C 92.816 259.881,92.816 258.935,92.728 258.357 C 92.641 257.779,92.569 258.252,92.569 259.408 M312.630 286.724 C 312.632 287.985,312.704 288.454,312.789 287.768 C 312.874 287.081,312.872 286.050,312.785 285.475 C 312.698 284.901,312.628 285.463,312.630 286.724 M76.145 354.728 C 76.147 355.989,76.219 356.458,76.304 355.772 C 76.389 355.085,76.387 354.053,76.300 353.479 C 76.213 352.905,76.143 353.467,76.145 354.728 " stroke="none" fill="#9844cc" fill-rule="evenodd"></path><path id="path4" d="M96.944 126.351 C 97.627 126.436,98.744 126.436,99.427 126.351 C 100.110 126.266,99.551 126.197,98.185 126.197 C 96.819 126.197,96.261 126.266,96.944 126.351 M300.320 126.236 C 300.598 126.513,305.622 126.597,305.890 126.329 C 306.030 126.189,304.798 126.074,303.152 126.074 C 301.506 126.074,300.232 126.147,300.320 126.236 M92.455 126.839 L 89.971 127.089 92.550 127.155 C 94.059 127.193,95.129 127.062,95.129 126.839 C 95.129 126.628,95.086 126.486,95.033 126.522 C 94.981 126.559,93.820 126.701,92.455 126.839 M307.059 127.114 C 307.738 127.199,308.941 127.200,309.734 127.117 C 310.526 127.035,309.971 126.966,308.500 126.964 C 307.030 126.962,306.381 127.030,307.059 127.114 M73.734 129.449 C 73.734 129.734,72.870 129.921,71.347 129.967 L 68.959 130.039 71.211 130.179 C 73.304 130.309,74.610 129.879,73.996 129.265 C 73.852 129.121,73.734 129.204,73.734 129.449 M328.080 130.171 C 328.763 130.256,329.881 130.256,330.564 130.171 C 331.246 130.087,330.688 130.017,329.322 130.017 C 327.956 130.017,327.397 130.087,328.080 130.171 M94.851 245.654 C 94.851 246.600,94.925 246.987,95.017 246.514 C 95.108 246.041,95.108 245.267,95.017 244.795 C 94.925 244.322,94.851 244.709,94.851 245.654 M92.569 259.408 C 92.569 260.564,92.641 261.036,92.728 260.458 C 92.816 259.881,92.816 258.935,92.728 258.357 C 92.641 257.779,92.569 258.252,92.569 259.408 M312.630 286.724 C 312.632 287.985,312.704 288.454,312.789 287.768 C 312.874 287.081,312.872 286.050,312.785 285.475 C 312.698 284.901,312.628 285.463,312.630 286.724 M76.145 354.728 C 76.147 355.989,76.219 356.458,76.304 355.772 C 76.389 355.085,76.387 354.053,76.300 353.479 C 76.213 352.905,76.143 353.467,76.145 354.728 " stroke="none" fill="#9844cc" fill-rule="evenodd"></path></g></svg>