<?xml version="1.0" encoding="utf-8"?>
<!DOCTYPE svg PUBLIC "-//W3C//DTD SVG 20010904//EN" "http://www.w3.org/TR/2001/REC-SVG-20010904/DTD/svg10.dtd">
<svg version="1.0" xmlns="http://www.w3.org/2000/svg" width="512px" height="489px" viewBox="0 0 512 489" preserveAspectRatio="xMidYMid meet">
 <g fill="#ffffff">
  <path d="M331.5 449.9 c-54.3 -28.5 -74.6 -38.8 -76.2 -38.4 l-2.3 0.5 0 -206 0 -206 3.5 0 c2.4 0 4.4 0.8 6.4 2.7 2 1.9 14.7 26.6 39.6 77.3 20.2 41 36.8 74.6 37 74.8 0.1 0.1 37.3 5.7 82.6 12.3 45.3 6.5 83.3 12.2 84.4 12.5 4.2 1.3 5.5 3.5 5.5 9.4 l0 5.7 -54.3 52.9 c-29.8 29.1 -57.1 55.6 -60.6 59 l-6.4 6.1 14.2 82.4 c7.8 45.3 14.1 83.7 14.1 85.2 0 1.8 -1.1 3.9 -2.9 5.8 -5.7 5.6 -3.6 6.5 -84.6 -36.2z"/>
 </g>
 <g fill="#9543c8">
  <path d="M96.9 486.1 c-1.8 -1.9 -2.9 -4 -2.9 -5.8 0 -1.5 6.4 -39.9 14.1 -85.3 l14.2 -82.4 -6.9 -6.5 c-21.3 -20.1 -114.3 -111.4 -114.8 -112.7 -2.1 -5.4 0.9 -12.6 5.9 -13.8 1.3 -0.3 39.4 -6 84.6 -12.6 45.2 -6.5 82.3 -12 82.4 -12.2 0.2 -0.2 16.8 -33.8 37 -74.8 35.9 -73 39.7 -80 44 -80 1.3 0 1.5 24.5 1.5 205.4 l0 205.4 -74.4 39.1 c-81.2 42.7 -79.1 41.8 -84.7 36.2z"/>
 </g>
</svg>