<?xml version="1.0" encoding="UTF-8"?>
<!DOCTYPE svg PUBLIC "-//W3C//DTD SVG 1.1//EN" "http://www.w3.org/Graphics/SVG/1.1/DTD/svg11.dtd">
<svg xmlns="http://www.w3.org/2000/svg" version="1.1" width="32px" height="32px" style="shape-rendering:geometricPrecision; text-rendering:geometricPrecision; image-rendering:optimizeQuality; fill-rule:evenodd; clip-rule:evenodd" xmlns:xlink="http://www.w3.org/1999/xlink">
<g><path style="opacity:1" fill="#fafafd" d="M 31.5,0.5 C 31.5,10.8333 31.5,21.1667 31.5,31.5C 21.1667,31.5 10.8333,31.5 0.5,31.5C 0.5,21.1667 0.5,10.8333 0.5,0.5C 10.8333,0.5 21.1667,0.5 31.5,0.5 Z"/></g>
<g><path style="opacity:1" fill="#2a1ff0" d="M 18.5,7.5 C 13.0247,6.51114 7.358,6.1778 1.5,6.5C 1.41483,5.00475 2.08149,4.00475 3.5,3.5C 12.4714,4.14101 21.4714,4.80767 30.5,5.5C 30.2907,6.08605 29.9574,6.58605 29.5,7C 25.8484,7.49863 22.1817,7.6653 18.5,7.5 Z"/></g>
<g><path style="opacity:1" fill="#6360ea" d="M 1.5,6.5 C 7.358,6.1778 13.0247,6.51114 18.5,7.5C 16.2646,7.20528 14.2646,7.53862 12.5,8.5C 11.8333,8.5 11.1667,8.5 10.5,8.5C 7.5,7.83333 4.5,7.16667 1.5,6.5 Z"/></g>
<g><path style="opacity:1" fill="#3125ef" d="M 10.5,8.5 C 11.1667,8.5 11.8333,8.5 12.5,8.5C 12.3067,10.6929 12.3067,13.0262 12.5,15.5C 14.1667,14.8333 15.8333,14.1667 17.5,13.5C 18.3857,14.325 18.719,15.325 18.5,16.5C 15.7462,16.7845 13.0795,17.4512 10.5,18.5C 9.33385,21.5032 7.66718,24.1698 5.5,26.5C 4.73785,23.7905 5.40452,21.2905 7.5,19C 6.55198,18.5172 5.55198,18.3505 4.5,18.5C 4.5,17.5 4.5,16.5 4.5,15.5C 8.8922,15.4745 10.8922,13.1412 10.5,8.5 Z"/></g>
</svg>
