<svg version="1.2" baseProfile="tiny-ps" xmlns="http://www.w3.org/2000/svg" viewBox="0 0 2480 3508" width="2480" height="3508">
	<title>parcour</title>
	<style>
		tspan { white-space:pre }
		.txt0 { font-size: 190px;fill: #cccccc;font-weight: 400;font-family: "DejaVuSans", "DejaVu Sans" } 
		.shp1 { fill: #cccccc } 
		.txt2 { font-size: 77px;fill: #cccccc;font-weight: 400;font-family: "DejaVuSans", "DejaVu Sans" } 
	</style>
	<text id="2018 - 2022 " style="transform: matrix(1,0,0,1,780,2417)" >
		<tspan x="0" y="144.355" class="txt0">2</tspan><tspan  y="144.355" class="txt0">0</tspan><tspan  y="144.355" class="txt0">1</tspan><tspan  y="144.355" class="txt0">8</tspan><tspan  y="144.355" class="txt0"> </tspan><tspan  y="144.355" class="txt0">-</tspan><tspan  y="144.355" class="txt0"> </tspan><tspan  y="144.355" class="txt0">2</tspan><tspan  y="144.355" class="txt0">0</tspan><tspan  y="144.355" class="txt0">2</tspan><tspan  y="144.355" class="txt0">2</tspan><tspan  y="144.355" class="txt0">
</tspan>
	</text>
	<path id="Forme 1" class="shp1" d="M584.5 2562C546.62 2562 516 2531.38 516 2493.5C516 2455.62 546.62 2425 584.5 2425C622.38 2425 653 2455.62 653 2493.5C653 2531.38 622.38 2562 584.5 2562Z" />
	<path id="Forme 1 copy" class="shp1" d="M584.5 2562C546.62 2562 516 2531.38 516 2493.5C516 2455.62 546.62 2425 584.5 2425C622.38 2425 653 2455.62 653 2493.5C653 2531.38 622.38 2562 584.5 2562Z" />
	<path id="Forme 1 copy 2" class="shp1" d="M584.5 1730C546.62 1730 516 1699.38 516 1661.5C516 1623.62 546.62 1593 584.5 1593C622.38 1593 653 1623.62 653 1661.5C653 1699.38 622.38 1730 584.5 1730Z" />
	<text id="Apprentissage d'informaticien " style="transform: matrix(1,0,0,1,788,2654)" >
		<tspan x="0" y="58.502" class="txt2">A</tspan><tspan  y="58.502" class="txt2">p</tspan><tspan  y="58.502" class="txt2">p</tspan><tspan  y="58.502" class="txt2">r</tspan><tspan  y="58.502" class="txt2">e</tspan><tspan  y="58.502" class="txt2">n</tspan><tspan  y="58.502" class="txt2">t</tspan><tspan  y="58.502" class="txt2">i</tspan><tspan  y="58.502" class="txt2">s</tspan><tspan  y="58.502" class="txt2">s</tspan><tspan  y="58.502" class="txt2">a</tspan><tspan  y="58.502" class="txt2">g</tspan><tspan  y="58.502" class="txt2">e</tspan><tspan  y="58.502" class="txt2"> </tspan>
		<tspan x="0" y="150.902" class="txt2">d</tspan><tspan  y="150.902" class="txt2">'</tspan><tspan  y="150.902" class="txt2">i</tspan><tspan  y="150.902" class="txt2">n</tspan><tspan  y="150.902" class="txt2">f</tspan><tspan  y="150.902" class="txt2">o</tspan><tspan  y="150.902" class="txt2">r</tspan><tspan  y="150.902" class="txt2">m</tspan><tspan  y="150.902" class="txt2">a</tspan><tspan  y="150.902" class="txt2">t</tspan><tspan  y="150.902" class="txt2">i</tspan><tspan  y="150.902" class="txt2">c</tspan><tspan  y="150.902" class="txt2">i</tspan><tspan  y="150.902" class="txt2">e</tspan><tspan  y="150.902" class="txt2">n
</tspan>
	</text>
	<text id="2021 - 2022 " style="transform: matrix(1,0,0,1,780,1583)" >
		<tspan x="0" y="144.355" class="txt0">2</tspan><tspan  y="144.355" class="txt0">0</tspan><tspan  y="144.355" class="txt0">2</tspan><tspan  y="144.355" class="txt0">1</tspan><tspan  y="144.355" class="txt0"> </tspan><tspan  y="144.355" class="txt0">-</tspan><tspan  y="144.355" class="txt0"> </tspan><tspan  y="144.355" class="txt0">2</tspan><tspan  y="144.355" class="txt0">0</tspan><tspan  y="144.355" class="txt0">2</tspan><tspan  y="144.355" class="txt0">2</tspan><tspan  y="144.355" class="txt0">
</tspan>
	</text>
	<text id="Stage au service des infrastruct" style="transform: matrix(1,0,0,1,788,1820)" >
		<tspan x="0" y="58.502" class="txt2">S</tspan><tspan  y="58.502" class="txt2">t</tspan><tspan  y="58.502" class="txt2">a</tspan><tspan  y="58.502" class="txt2">g</tspan><tspan  y="58.502" class="txt2">e</tspan><tspan  y="58.502" class="txt2"> </tspan><tspan  y="58.502" class="txt2">a</tspan><tspan  y="58.502" class="txt2">u</tspan><tspan  y="58.502" class="txt2"> </tspan><tspan  y="58.502" class="txt2">s</tspan><tspan  y="58.502" class="txt2">e</tspan><tspan  y="58.502" class="txt2">r</tspan><tspan  y="58.502" class="txt2">v</tspan><tspan  y="58.502" class="txt2">i</tspan><tspan  y="58.502" class="txt2">c</tspan><tspan  y="58.502" class="txt2">e</tspan><tspan  y="58.502" class="txt2"> </tspan><tspan  y="58.502" class="txt2">d</tspan><tspan  y="58.502" class="txt2">e</tspan><tspan  y="58.502" class="txt2">s</tspan><tspan  y="58.502" class="txt2"> </tspan>
		<tspan x="0" y="150.902" class="txt2">i</tspan><tspan  y="150.902" class="txt2">n</tspan><tspan  y="150.902" class="txt2">f</tspan><tspan  y="150.902" class="txt2">r</tspan><tspan  y="150.902" class="txt2">a</tspan><tspan  y="150.902" class="txt2">s</tspan><tspan  y="150.902" class="txt2">t</tspan><tspan  y="150.902" class="txt2">r</tspan><tspan  y="150.902" class="txt2">u</tspan><tspan  y="150.902" class="txt2">c</tspan><tspan  y="150.902" class="txt2">t</tspan><tspan  y="150.902" class="txt2">u</tspan><tspan  y="150.902" class="txt2">r</tspan><tspan  y="150.902" class="txt2">e</tspan><tspan  y="150.902" class="txt2">s</tspan><tspan  y="150.902" class="txt2"> </tspan><tspan  y="150.902" class="txt2">(</tspan><tspan  y="150.902" class="txt2">d</tspan><tspan  y="150.902" class="txt2">é</tspan><tspan  y="150.902" class="txt2">v</tspan><tspan  y="150.902" class="txt2">e</tspan><tspan  y="150.902" class="txt2">l</tspan><tspan  y="150.902" class="txt2">o</tspan><tspan  y="150.902" class="txt2">p</tspan><tspan  y="150.902" class="txt2">p</tspan><tspan  y="150.902" class="txt2">e</tspan><tspan  y="150.902" class="txt2">m</tspan><tspan  y="150.902" class="txt2">e</tspan><tspan  y="150.902" class="txt2">n</tspan><tspan  y="150.902" class="txt2">t</tspan><tspan  y="150.902" class="txt2"> </tspan>
		<tspan x="0" y="243.302" class="txt2">l</tspan><tspan  y="243.302" class="txt2">o</tspan><tspan  y="243.302" class="txt2">g</tspan><tspan  y="243.302" class="txt2">i</tspan><tspan  y="243.302" class="txt2">c</tspan><tspan  y="243.302" class="txt2">i</tspan><tspan  y="243.302" class="txt2">e</tspan><tspan  y="243.302" class="txt2">l</tspan><tspan  y="243.302" class="txt2"> </tspan><tspan  y="243.302" class="txt2">W</tspan><tspan  y="243.302" class="txt2">i</tspan><tspan  y="243.302" class="txt2">n</tspan><tspan  y="243.302" class="txt2">D</tspan><tspan  y="243.302" class="txt2">e</tspan><tspan  y="243.302" class="txt2">v</tspan><tspan  y="243.302" class="txt2">,</tspan><tspan  y="243.302" class="txt2"> </tspan><tspan  y="243.302" class="txt2">m</tspan><tspan  y="243.302" class="txt2">i</tspan><tspan  y="243.302" class="txt2">g</tspan><tspan  y="243.302" class="txt2">r</tspan><tspan  y="243.302" class="txt2">a</tspan><tspan  y="243.302" class="txt2">t</tspan><tspan  y="243.302" class="txt2">i</tspan><tspan  y="243.302" class="txt2">o</tspan><tspan  y="243.302" class="txt2">n</tspan><tspan  y="243.302" class="txt2"> </tspan><tspan  y="243.302" class="txt2">d</tspan><tspan  y="243.302" class="txt2">u</tspan><tspan  y="243.302" class="txt2"> </tspan>
		<tspan x="0" y="335.702" class="txt2">S</tspan><tspan  y="335.702" class="txt2">G</tspan><tspan  y="335.702" class="txt2">B</tspan><tspan  y="335.702" class="txt2">D</tspan><tspan  y="335.702" class="txt2"> </tspan><tspan  y="335.702" class="txt2">O</tspan><tspan  y="335.702" class="txt2">r</tspan><tspan  y="335.702" class="txt2">a</tspan><tspan  y="335.702" class="txt2">c</tspan><tspan  y="335.702" class="txt2">l</tspan><tspan  y="335.702" class="txt2">e</tspan><tspan  y="335.702" class="txt2"> </tspan><tspan  y="335.702" class="txt2">v</tspan><tspan  y="335.702" class="txt2">e</tspan><tspan  y="335.702" class="txt2">r</tspan><tspan  y="335.702" class="txt2">s</tspan><tspan  y="335.702" class="txt2"> </tspan><tspan  y="335.702" class="txt2">M</tspan><tspan  y="335.702" class="txt2">y</tspan><tspan  y="335.702" class="txt2">S</tspan><tspan  y="335.702" class="txt2">q</tspan><tspan  y="335.702" class="txt2">l</tspan><tspan  y="335.702" class="txt2">S</tspan><tspan  y="335.702" class="txt2">e</tspan><tspan  y="335.702" class="txt2">r</tspan><tspan  y="335.702" class="txt2">v</tspan><tspan  y="335.702" class="txt2">e</tspan><tspan  y="335.702" class="txt2">r</tspan><tspan  y="335.702" class="txt2">)</tspan><tspan  y="335.702" class="txt2">
</tspan>
	</text>
	<path id="Forme 2" class="shp1" d="M576 1725L588 1725L588 2431L576 2431L576 1725Z" />
</svg>