<svg width="74" height="74" viewBox="0 0 74 74" fill="none" xmlns="http://www.w3.org/2000/svg">
<g clip-path="url(#clip0)">
<path d="M65.575 27.0191H41.699C41.7812 26.5823 41.8246 26.1367 41.8246 25.6829V11.0156C41.8246 7.0508 38.5991 3.82544 34.6345 3.82544H7.18855C3.22464 3.82544 0 7.0508 0 11.0156V25.6829C0 29.6467 3.22464 32.8713 7.18855 32.8713H11.4119L11.184 38.1811C11.1634 38.6602 11.4119 39.1107 11.8281 39.3488C12.0257 39.4618 12.2453 39.518 12.4648 39.518C12.7075 39.518 12.9499 39.4491 13.1613 39.3122L23.1131 32.8712H24.374C24.1136 33.6821 23.9714 34.5456 23.9714 35.4418V53.1723C23.9714 57.8167 27.7499 61.5953 32.3944 61.5953H36.0334L44.0569 69.7895C44.3022 70.0401 44.634 70.1745 44.9728 70.1745C45.1151 70.1745 45.2587 70.1508 45.3977 70.1018C45.8674 69.9368 46.199 69.5146 46.2481 69.0192L46.9848 61.5953H65.5751C70.2208 61.5953 74.0001 57.8167 74.0001 53.1723V35.4419C74 30.7974 70.2205 27.0191 65.575 27.0191ZM25.7237 30.3076H22.7343C22.4872 30.3076 22.2454 30.379 22.0378 30.5134L13.8517 35.8117L14.0307 31.6445C14.0457 31.2953 13.9173 30.9553 13.6757 30.7028C13.4339 30.4503 13.0996 30.3076 12.7501 30.3076H7.1887C4.63844 30.3076 2.56355 28.233 2.56355 25.6829V11.0156C2.56355 8.46446 4.63844 6.38913 7.18855 6.38913H34.6347C37.1859 6.38913 39.2612 8.4646 39.2612 11.0156V25.6829C39.2612 26.1421 39.1949 26.5891 39.0646 27.0191H32.3942C29.6812 27.0191 27.2654 28.3096 25.7237 30.3076ZM71.4366 53.1723C71.4366 56.4032 68.8071 59.0318 65.5751 59.0318H45.8236C45.1647 59.0318 44.613 59.5313 44.548 60.1871L43.968 66.0347L37.4881 59.4169C37.2472 59.1707 36.9169 59.0319 36.5723 59.0319H32.3945C29.1637 59.0319 26.5351 56.4033 26.5351 53.1725V35.4419C26.5351 32.2111 29.1637 29.5826 32.3945 29.5826H65.5753V29.5825C68.8073 29.5825 71.4367 32.2109 71.4367 35.4418V53.1723H71.4366Z" fill="black"/>
<path d="M26.494 13.5506C26.3197 10.7449 24.0724 8.49754 21.2666 8.32338C19.7047 8.22684 18.219 8.76102 17.0826 9.82911C15.9619 10.8823 15.3194 12.3679 15.3194 13.905C15.3193 14.6132 15.8929 15.187 16.6011 15.187C17.3094 15.187 17.883 14.6131 17.883 13.9052C17.883 13.0603 18.2222 12.2763 18.8382 11.6972C19.4536 11.1188 20.2598 10.8293 21.1076 10.8819C22.6005 10.9745 23.8425 12.2165 23.9352 13.7092C24.0052 14.8368 23.4516 15.9027 22.4904 16.4913C20.6995 17.5875 19.6302 19.4821 19.6302 21.5593C19.6302 22.2672 20.204 22.8411 20.9121 22.8411C21.6201 22.8411 22.1939 22.2672 22.1939 21.5593C22.1939 20.3815 22.8052 19.3044 23.8289 18.6777C25.6015 17.5927 26.6229 15.628 26.494 13.5506Z" fill="black"/>
<path d="M48.9853 34.7453C48.2772 34.7453 47.7034 35.3192 47.7034 36.0271V46.8761C47.7034 47.584 48.2773 48.1579 48.9853 48.1579C49.6933 48.1579 50.2671 47.584 50.2671 46.8761V36.0271C50.267 35.3192 49.6933 34.7453 48.9853 34.7453Z" fill="black"/>
<path d="M48.9839 53.9011C49.6919 53.9011 50.2658 53.3272 50.2658 52.6192C50.2658 51.9113 49.6919 51.3374 48.9839 51.3374C48.276 51.3374 47.7021 51.9113 47.7021 52.6192C47.7021 53.3272 48.276 53.9011 48.9839 53.9011Z" fill="black"/>
<path d="M20.9106 27.5932C21.6186 27.5932 22.1925 27.0193 22.1925 26.3113C22.1925 25.6034 21.6186 25.0295 20.9106 25.0295C20.2027 25.0295 19.6288 25.6034 19.6288 26.3113C19.6288 27.0193 20.2027 27.5932 20.9106 27.5932Z" fill="black"/>
</g>
<defs>
<clipPath id="clip0">
<rect width="74" height="74" fill="white"/>
</clipPath>
</defs>
</svg>
