<?xml version="1.0" encoding="utf-8"?>
<!DOCTYPE svg PUBLIC "-//W3C//DTD SVG 20010904//EN" "http://www.w3.org/TR/2001/REC-SVG-20010904/DTD/svg10.dtd">
<svg version="1.0" xmlns="http://www.w3.org/2000/svg" width="70px" height="70px" viewBox="0 0 722 739" preserveAspectRatio="xMidYMid meet">
 <g fill="#000000">
  <path d="M346.5 738.4 c-31.7 -2.3 -50 -4.9 -73.6 -10.5 -16.1 -3.8 -17.9 -5.2 -17.9 -13.1 0 -7.3 -2.3 -17.1 -6 -26.5 -8.7 -21.8 -26.1 -40.4 -47.5 -50.9 -14.1 -6.9 -23.1 -8.8 -41 -8.8 -17.1 0 -25.9 1.8 -39.8 8.1 -5.2 2.3 -8.7 3.3 -10.2 2.9 -3.1 -0.8 -26.9 -25.9 -38.5 -40.6 -26.6 -33.7 -46.3 -69.5 -59.7 -108.5 -6.2 -18 -10.3 -33.7 -10.3 -39.6 l0 -5.6 6.6 -3.9 c3.7 -2.1 10.6 -7.6 15.3 -12.1 13.8 -12.9 21.5 -25.9 26.9 -45.1 2.3 -8.5 2.7 -11.6 2.7 -24.2 0 -11 -0.5 -16.3 -1.9 -22 -2.5 -10.1 -8.2 -23.1 -13.5 -31 -5.5 -8.1 -17.9 -20.5 -25.7 -25.6 -5.9 -3.9 -5.9 -4 -6.2 -9.3 -0.2 -3.6 0.4 -7.6 1.9 -12 19.8 -59.7 47.9 -106.8 88.6 -148.3 11 -11.2 11.3 -11.3 22.7 -7.2 22.7 8.2 48.6 6.8 71.3 -3.8 25.7 -12.1 46.3 -37 51.8 -62.9 4.2 -19.7 3.7 -18.2 8 -20.5 4.8 -2.6 28.7 -8.6 48.5 -12.2 13.9 -2.5 16.3 -2.6 58 -3 46.1 -0.4 51.8 0 76.5 4.9 13.2 2.6 36.2 8.7 39.7 10.5 3.2 1.7 5.3 5.3 6.4 10.9 1.8 10 7.3 21.8 15.6 33.2 12.7 17.7 31.5 30.3 54.6 36.5 11.9 3.2 32.5 3 45.5 -0.4 5.4 -1.4 10.8 -2.3 12 -2 3.3 0.8 12.4 9.3 25.2 23.2 37.1 40.8 62.4 83.7 79.4 134.7 6.7 20.2 6.8 21.7 1.3 25.2 -20.4 13.3 -36.1 34.7 -42.2 58.1 -3.3 12.4 -3.3 32.9 -0.1 45.5 6.3 24.5 22.6 47.1 42.2 58.6 4.1 2.4 7.7 4.8 8.1 5.4 1 1.3 0.2 5.8 -3.2 18.5 -12.3 45.1 -33.6 88.8 -61.9 126.5 -15.2 20.2 -49 55.7 -54.5 57.1 -1.9 0.4 -5.1 -0.3 -10.9 -2.6 -10.6 -4.2 -12.6 -4.8 -22.2 -6.5 -20.3 -3.7 -43.1 0 -61.3 10 -23.5 12.9 -39.8 34.2 -46.8 61 -2.8 10.8 -4.2 13.7 -7.7 15.9 -4.3 2.8 -35.6 8.6 -56.7 10.5 -13.1 1.2 -42 2.1 -49.5 1.5z m29.9 -102 c20.2 -5.2 37.8 -22.8 43 -43 2.1 -8 2.1 -22.8 0 -30.8 -5.2 -20.2 -22.8 -37.8 -43 -43 -3.5 -0.9 -10.2 -1.6 -15.4 -1.6 -5.2 0 -11.9 0.7 -15.4 1.6 -20.2 5.2 -37.8 22.8 -43 43 -2.1 8 -2.1 22.8 0 30.8 5.1 19.8 22 37 41.9 42.7 7.9 2.3 23.6 2.4 31.9 0.3z m149 -51 c20.2 -5.2 37.8 -22.8 43 -43 0.9 -3.5 1.6 -10.2 1.6 -15.4 0 -17.1 -5.5 -30.6 -17.5 -42.5 -11.9 -12 -25.4 -17.5 -42.5 -17.5 -5.2 0 -11.9 0.7 -15.4 1.6 -20.2 5.2 -37.8 22.8 -43 43 -2.1 8 -2.1 22.8 0 30.8 5.1 19.8 22 37 41.9 42.7 7.9 2.3 23.6 2.4 31.9 0.3z m-306 -2 c20.2 -5.2 37.8 -22.8 43 -43 2.1 -8 2.1 -22.8 0 -30.8 -5.2 -20.2 -22.8 -37.8 -43 -43 -3.5 -0.9 -10.2 -1.6 -15.4 -1.6 -5.2 0 -11.9 0.7 -15.4 1.6 -20.2 5.2 -37.8 22.8 -43 43 -2.1 8 -2.1 22.8 0 30.8 5.1 19.8 22 37 41.9 42.7 7.9 2.3 23.6 2.4 31.9 0.3z m155.2 -123.5 c31.2 -4.3 58.2 -23.3 72.9 -51.2 25.1 -47.5 6.9 -106 -40.8 -131.2 -28.5 -15 -61.9 -15 -90.4 0 -47.7 25.2 -65.9 83.7 -40.8 131.2 19.2 36.4 58.8 56.8 99.1 51.2z m213.8 -28.5 c20.2 -5.2 37.8 -22.8 43 -43 0.9 -3.5 1.6 -10.2 1.6 -15.4 0 -17.1 -5.5 -30.6 -17.5 -42.5 -11.9 -12 -25.4 -17.5 -42.5 -17.5 -17.1 0 -30.6 5.5 -42.5 17.5 -12 11.9 -17.5 25.4 -17.5 42.5 0 5.2 0.7 11.9 1.6 15.4 5.1 19.8 22 37 41.9 42.7 7.9 2.3 23.6 2.4 31.9 0.3z m-426 -4 c9.8 -2.5 19.3 -8.1 27.1 -15.9 12 -11.9 17.5 -25.4 17.5 -42.5 0 -17.1 -5.5 -30.6 -17.5 -42.5 -11.9 -12 -25.4 -17.5 -42.5 -17.5 -5.2 0 -11.9 0.7 -15.4 1.6 -20.2 5.2 -37.8 22.8 -43 43 -2.1 8 -2.1 22.8 0 30.8 5.1 19.8 22 37 41.9 42.7 7.9 2.3 23.6 2.4 31.9 0.3z m369 -152 c20.2 -5.2 37.8 -22.8 43 -43 0.9 -3.5 1.6 -10.2 1.6 -15.4 0 -17.1 -5.5 -30.6 -17.5 -42.5 -11.9 -12 -25.4 -17.5 -42.5 -17.5 -5.2 0 -11.9 0.7 -15.4 1.6 -20.2 5.2 -37.8 22.8 -43 43 -2.1 8 -2.1 22.8 0 30.8 5.1 19.8 22 37 41.9 42.7 7.9 2.3 23.6 2.4 31.9 0.3z m-306 -2 c20.2 -5.2 37.8 -22.8 43 -43 2.1 -8 2.1 -22.8 0 -30.8 -5.2 -20.2 -22.8 -37.8 -43 -43 -3.5 -0.9 -10.2 -1.6 -15.4 -1.6 -5.2 0 -11.9 0.7 -15.4 1.6 -20.2 5.2 -37.8 22.8 -43 43 -2.1 8 -2.1 22.8 0 30.8 5.1 19.8 22 37 41.9 42.7 7.9 2.3 23.6 2.4 31.9 0.3z m151 -59 c20.2 -5.2 37.8 -22.8 43 -43 2.1 -8 2.1 -22.8 0 -30.8 -5.2 -20.2 -22.8 -37.8 -43 -43 -8 -2.1 -22.8 -2.1 -30.8 0 -20.2 5.2 -37.8 22.8 -43 43 -2.1 8 -2.1 22.8 0 30.8 5.1 19.8 22 37 41.9 42.7 7.9 2.3 23.6 2.4 31.9 0.3z"/>
 </g>
 <g fill="#ffffff">
 </g>
</svg>