<svg width="19" height="19" viewBox="0 0 19 19" fill="none" xmlns="http://www.w3.org/2000/svg">
<path d="M18.3921 0H0.607897C0.272095 0 0 0.272216 0 0.607897V18.3921C0 18.7278 0.272095 19 0.607897 19H18.3921C18.7278 19 19 18.7278 19 18.3921V0.607897C19 0.272216 18.7278 0 18.3921 0ZM9.4883 7.28771L7.44777 12.1509C7.35944 12.3614 7.15337 12.4984 6.9251 12.4984H6.92461C6.69617 12.4982 6.49021 12.3609 6.40207 12.1501L4.37066 7.28692C4.25005 6.99805 4.3864 6.66614 4.67521 6.54547C4.96415 6.42474 5.29606 6.56121 5.41667 6.85003L6.92626 10.464L8.44296 6.84917C8.56405 6.56054 8.89621 6.4248 9.1849 6.54583C9.47359 6.66687 9.60939 6.99908 9.4883 7.28771ZM12.367 12.4984H10.4119C10.0989 12.4984 9.84519 12.2446 9.84519 11.9316V9.40021V7.06844C9.84519 6.75544 10.0989 6.5017 10.4119 6.5017H12.367C13.6306 6.5017 14.4156 7.18005 14.4156 8.27202C14.4156 8.67384 14.3037 9.02593 14.0995 9.30514C14.4669 9.62319 14.6731 10.0808 14.6731 10.6307C14.6731 11.5336 14.0673 12.4984 12.367 12.4984Z" fill="black"/>
<path d="M12.8592 9.96692H10.9787V11.3648H12.367C13.145 11.3648 13.5395 11.1177 13.5395 10.6306C13.5396 10.4735 13.5391 10.0608 12.8592 9.96692Z" fill="black"/>
<path d="M13.2821 8.27197C13.2821 8.0978 13.2821 7.63513 12.367 7.63513H10.9787V8.83342H12.8286C13.1415 8.76984 13.2821 8.59561 13.2821 8.27197Z" fill="black"/>
</svg>
