<?xml version="1.0" encoding="utf-8"?>
<!DOCTYPE svg PUBLIC "-//W3C//DTD SVG 20010904//EN" "http://www.w3.org/TR/2001/REC-SVG-20010904/DTD/svg10.dtd">
<svg version="1.0" xmlns="http://www.w3.org/2000/svg" width="61px" height="61px" viewBox="0 0 61 61" preserveAspectRatio="xMidYMid meet">
 <g fill="#000000">
  <path d="M18.97 57.72 c-0.37 -0.12 -0.65 -0.37 -0.82 -0.72 -0.09 -0.19 -0.11 -0.25 -0.11 -0.51 0 -0.25 0.01 -0.32 0.11 -0.52 0.13 -0.26 0.36 -0.53 0.69 -0.77 l0.23 -0.17 0 -3.05 0 -3.05 2.16 -2.17 c1.19 -1.20 2.32 -2.36 2.53 -2.58 0.44 -0.49 0.58 -0.75 0.55 -0.99 -0.03 -0.26 -0.12 -0.31 -0.87 -0.55 -0.80 -0.26 -1.62 -0.55 -2.59 -0.93 l-0.74 -0.29 -5.83 5.83 -5.83 5.83 0.04 0.38 c0.05 0.44 0.02 0.67 -0.12 0.97 -0.13 0.25 -0.42 0.53 -0.68 0.63 -0.26 0.10 -0.73 0.11 -0.99 0.02 -0.25 -0.09 -0.56 -0.39 -0.72 -0.72 -0.11 -0.21 -0.12 -0.26 -0.12 -0.53 0 -0.25 0.02 -0.32 0.11 -0.51 0.14 -0.28 0.40 -0.55 0.69 -0.69 0.20 -0.10 0.24 -0.11 0.56 -0.11 0.19 0 0.42 0.01 0.51 0.03 l0.17 0.03 5.57 -5.59 c3.07 -3.07 5.64 -5.66 5.71 -5.75 l0.14 -0.17 -0.11 -0.09 c-0.06 -0.05 -0.35 -0.22 -0.64 -0.37 -3.13 -1.66 -6.36 -4.37 -9.08 -7.61 -0.55 -0.65 -1.60 -2.04 -1.79 -2.35 -0.11 -0.19 0.99 -1.67 2.55 -3.43 0.68 -0.76 2.35 -2.44 2.99 -2.99 2.05 -1.78 4.03 -3.14 5.94 -4.08 0.14 -0.07 0.26 -0.14 0.26 -0.15 0 -0.01 -2.59 -2.61 -5.76 -5.77 l-5.76 -5.76 -0.41 0.04 c-0.47 0.05 -0.73 0.03 -0.94 -0.07 -0.46 -0.22 -0.79 -0.88 -0.69 -1.38 0.10 -0.56 0.53 -1 1.07 -1.11 0.51 -0.11 1.09 0.13 1.36 0.55 0.21 0.33 0.24 0.55 0.16 1.26 l-0.02 0.19 5.86 5.85 5.86 5.85 0.31 -0.14 c0.42 -0.19 1.28 -0.50 2.42 -0.89 1.13 -0.38 1.37 -0.49 1.44 -0.63 0.07 -0.14 0.07 -0.43 0 -0.58 -0.14 -0.27 -0.53 -0.68 -2.79 -2.95 l-2.38 -2.39 0 -3.10 0 -3.10 -0.26 -0.16 c-0.49 -0.29 -0.72 -0.64 -0.75 -1.11 -0.03 -0.56 0.26 -1.04 0.80 -1.30 0.20 -0.09 0.25 -0.11 0.56 -0.11 0.30 0 0.36 0.01 0.53 0.09 0.26 0.12 0.52 0.38 0.64 0.66 0.20 0.42 0.14 0.87 -0.19 1.34 -0.10 0.15 -0.20 0.24 -0.33 0.32 -0.12 0.07 -0.20 0.15 -0.23 0.22 -0.04 0.09 -0.05 0.52 -0.06 3 l-0.01 2.89 2.22 2.24 c1.22 1.23 2.33 2.37 2.46 2.51 0.41 0.45 0.57 0.70 0.63 0.99 0.07 0.31 0.13 0.38 0.33 0.38 0.08 0 0.55 -0.06 1.05 -0.14 l0.90 -0.14 0.02 -0.32 c0.02 -0.26 0.01 -0.35 -0.03 -0.47 -0.12 -0.32 -0.51 -0.74 -3.45 -3.76 l-1.85 -1.90 0.02 -0.59 c0.01 -0.33 0.03 -0.65 0.05 -0.72 0.05 -0.17 0.18 -0.26 0.36 -0.26 0.27 0 0.38 0.22 0.38 0.79 0 0.48 0.05 0.58 0.50 1.04 0.22 0.22 0.41 0.40 0.43 0.39 0.02 -0.01 0.45 -0.42 0.95 -0.93 l0.91 -0.92 -0.01 -1.01 c-0.02 -1.17 -0.02 -1.18 -0.31 -1.39 -0.51 -0.38 -0.73 -0.80 -0.70 -1.33 0.04 -0.73 0.66 -1.24 1.45 -1.18 0.31 0.02 0.50 0.12 0.78 0.39 0.35 0.35 0.39 0.45 0.39 0.90 0 0.30 -0.01 0.40 -0.06 0.49 -0.03 0.06 -0.24 0.30 -0.46 0.52 l-0.40 0.40 0 1.22 0 1.22 -0.93 0.93 c-0.51 0.52 -0.97 0.99 -1.02 1.06 l-0.09 0.13 0.12 0.15 c0.16 0.19 1.20 1.29 2.35 2.46 0.98 1.01 1.31 1.38 1.41 1.61 0.05 0.11 0.06 0.22 0.06 0.54 l0 0.40 0.16 0 c0.17 0 1.71 -0.10 1.72 -0.11 0 -0 0.02 -0.57 0.04 -1.26 l0.04 -1.25 -1.14 -1.14 -1.13 -1.14 0 -2 c0 -2.50 0.04 -2.93 0.26 -2.98 0.12 -0.03 0.24 0.01 0.31 0.11 0.08 0.13 0.11 0.89 0.12 2.85 l0 1.73 0.65 0.62 c0.67 0.63 0.79 0.74 0.83 0.70 0.01 -0.01 0.03 -0.21 0.05 -0.44 0.02 -0.42 0.09 -5.17 0.09 -6.67 l0 -0.81 0.28 0 0.28 0 0.02 2.82 c0.01 1.55 0.02 3.95 0.02 5.34 0 1.39 0.01 2.76 0.02 3.05 l0.02 0.53 0.75 0.02 c0.41 0.01 0.82 0.03 0.90 0.06 0.24 0.06 0.25 0.03 0.27 -0.59 l0.01 -0.52 1.98 -1.98 c1.09 -1.09 1.98 -1.99 1.98 -2.01 0 -0.02 -0.46 -0.50 -1.03 -1.06 l-1.03 -1.03 -0.01 -1.24 c-0.01 -0.85 -0.02 -1.27 -0.05 -1.33 -0.03 -0.06 -0.11 -0.13 -0.21 -0.18 -0.54 -0.27 -0.85 -1.22 -0.59 -1.75 0.11 -0.20 0.52 -0.60 0.71 -0.69 0.23 -0.11 0.78 -0.10 1.06 0.01 0.27 0.11 0.50 0.34 0.64 0.63 0.10 0.22 0.11 0.26 0.11 0.56 -0 0.25 -0.02 0.36 -0.08 0.52 -0.10 0.26 -0.37 0.55 -0.68 0.72 l-0.24 0.14 0 1.14 0 1.14 0.97 0.97 0.97 0.97 0.35 -0.36 c0.19 -0.20 0.38 -0.42 0.41 -0.49 0.05 -0.10 0.07 -0.26 0.09 -0.62 0.04 -0.69 0.12 -0.86 0.43 -0.86 0.11 0 0.15 0.02 0.22 0.10 0.11 0.13 0.14 0.31 0.14 0.94 l0 0.51 -2.69 2.71 -2.69 2.71 0.01 0.54 0.01 0.54 0.15 0.02 c0.08 0.01 0.54 0.09 1 0.17 0.47 0.08 0.89 0.15 0.94 0.16 0.11 0.02 0.17 -0.08 0.23 -0.40 0.05 -0.31 0.13 -0.45 0.37 -0.76 0.12 -0.15 1.28 -1.34 2.58 -2.64 l2.37 -2.38 0 -2.92 0 -2.93 -0.37 -0.35 c-0.52 -0.50 -0.63 -0.74 -0.55 -1.23 0.08 -0.48 0.35 -0.84 0.77 -1.04 0.57 -0.27 0.95 -0.20 1.47 0.27 0.35 0.33 0.48 0.72 0.36 1.16 -0.11 0.43 -0.34 0.73 -0.74 0.96 l-0.23 0.14 0 3.12 0 3.12 -2.38 2.39 c-1.31 1.31 -2.46 2.49 -2.56 2.61 -0.27 0.35 -0.32 0.46 -0.32 0.81 l0 0.30 0.89 0.29 c0.89 0.29 1.93 0.67 2.74 1 0.24 0.09 0.45 0.17 0.47 0.17 0.02 0 2.65 -2.61 5.84 -5.80 l5.81 -5.81 -0.06 -0.42 c-0.06 -0.48 -0.04 -0.73 0.09 -1.01 0.16 -0.34 0.55 -0.60 0.99 -0.69 0.38 -0.08 0.79 0.06 1.11 0.38 0.22 0.21 0.32 0.42 0.38 0.71 0.10 0.55 -0.23 1.17 -0.78 1.42 -0.18 0.08 -0.23 0.09 -0.70 0.09 l-0.50 0 -1.82 1.79 c-6.26 6.16 -9.60 9.51 -9.60 9.62 0 0.08 0.24 0.24 0.79 0.54 1.15 0.63 2.42 1.46 3.70 2.42 1 0.75 1.99 1.64 3.19 2.86 1.44 1.46 2.49 2.68 3.55 4.13 l0.46 0.62 -0.59 0.78 c-1.16 1.54 -2.07 2.58 -3.42 3.94 -2.27 2.30 -3.85 3.54 -6.40 5.03 -0.89 0.52 -1.28 0.77 -1.28 0.81 0 0.05 2.40 2.48 6.92 7 l4.49 4.49 0.17 -0.03 c0.39 -0.06 0.48 -0.07 0.68 -0.04 0.46 0.05 0.81 0.32 1.04 0.77 0.13 0.26 0.14 0.32 0.14 0.53 -0 0.55 -0.44 1.12 -1 1.28 -0.49 0.15 -0.98 -0.01 -1.38 -0.43 -0.21 -0.23 -0.24 -0.36 -0.24 -1.08 l0 -0.55 -5.82 -5.82 -5.82 -5.82 -0.24 0.10 c-0.13 0.06 -0.75 0.28 -1.38 0.51 -2.30 0.82 -2.41 0.86 -2.49 1.06 -0.12 0.29 -0.03 0.54 0.38 1.01 0.15 0.17 1.28 1.33 2.53 2.58 l2.26 2.27 0 3.05 0 3.05 0.32 0.24 c0.33 0.25 0.47 0.40 0.60 0.65 0.07 0.13 0.08 0.20 0.08 0.51 0 0.34 -0.01 0.37 -0.12 0.61 -0.20 0.43 -0.48 0.63 -0.95 0.71 -0.60 0.09 -1.17 -0.15 -1.40 -0.60 -0.17 -0.34 -0.21 -0.90 -0.07 -1.17 0.03 -0.07 0.24 -0.31 0.46 -0.53 l0.40 -0.39 0 -2.90 0 -2.90 -2.18 -2.19 c-2.72 -2.73 -3.07 -3.12 -3.13 -3.45 -0.07 -0.41 -0.12 -0.48 -0.35 -0.48 -0.12 0 -1.46 0.23 -1.89 0.32 -0.09 0.02 -0.12 0.11 -0.12 0.41 0 0.29 0.06 0.42 0.34 0.78 0.12 0.15 1.29 1.37 2.62 2.70 l2.41 2.43 -0.02 0.58 c-0.02 0.64 -0.06 0.81 -0.22 0.98 -0.09 0.10 -0.23 0.12 -0.35 0.06 -0.11 -0.06 -0.18 -0.30 -0.21 -0.76 -0.05 -0.68 -0.05 -0.68 -0.49 -1.13 l-0.38 -0.39 -0.96 0.94 -0.96 0.94 0 1.01 c0 0.59 0.01 1.05 0.03 1.13 0.03 0.09 0.09 0.17 0.21 0.27 0.30 0.25 0.55 0.51 0.63 0.68 0.25 0.52 0.15 1 -0.29 1.45 -0.30 0.30 -0.54 0.42 -0.89 0.43 -0.24 0.01 -0.28 0 -0.48 -0.09 -0.28 -0.13 -0.63 -0.46 -0.75 -0.71 -0.16 -0.33 -0.10 -0.86 0.15 -1.28 0.12 -0.19 0.33 -0.41 0.46 -0.45 0.06 -0.02 0.13 -0.07 0.16 -0.11 0.06 -0.09 0.09 -0.81 0.10 -1.91 l0 -0.75 1.03 -1.03 1.03 -1.03 -1.64 -1.66 c-0.90 -0.91 -1.76 -1.80 -1.91 -1.97 -0.38 -0.43 -0.42 -0.52 -0.43 -1.01 l-0.01 -0.40 -0.52 0.02 c-0.28 0.01 -0.70 0.03 -0.92 0.04 l-0.41 0.02 -0.02 1.80 c-0.01 0.99 -0.03 3.19 -0.04 4.88 -0.02 3.05 -0.05 4.48 -0.12 4.74 -0.04 0.17 -0.14 0.25 -0.31 0.25 -0.14 0 -0.16 -0.02 -0.21 -0.29 -0.02 -0.09 -0.05 -1.64 -0.06 -3.44 -0.03 -3.19 -0.05 -4.08 -0.11 -4.17 -0.04 -0.06 -0.20 0.07 -0.88 0.74 l-0.60 0.59 0 0.68 c0 0.38 -0.01 1.40 -0.02 2.26 l-0.02 1.58 -0.28 0 -0.28 0 -0.02 -0.89 c-0.01 -0.49 -0.03 -1.58 -0.04 -2.43 l-0.02 -1.54 1.14 -1.14 1.14 -1.14 -0.01 -1.10 c-0.01 -1.55 0.05 -1.46 -1.15 -1.48 l-0.77 -0.01 -0.01 0.40 c-0.01 0.37 -0.02 0.42 -0.11 0.58 -0.14 0.26 -0.35 0.48 -2.19 2.35 l-1.69 1.71 1.03 1.03 1.03 1.03 0 0.80 c0 1.06 0.04 1.76 0.10 1.85 0.02 0.04 0.10 0.10 0.17 0.13 0.19 0.08 0.48 0.42 0.58 0.65 0.06 0.16 0.08 0.26 0.08 0.54 0 0.31 -0.01 0.36 -0.10 0.54 -0.20 0.41 -0.59 0.69 -1.07 0.77 -0.68 0.12 -1.28 -0.32 -1.43 -1.05 -0.12 -0.56 0.11 -1.01 0.73 -1.46 l0.25 -0.19 0 -1.12 0 -1.13 -0.96 -0.94 -0.95 -0.94 -0.35 0.35 c-0.43 0.43 -0.47 0.51 -0.52 1.07 -0.06 0.63 -0.21 0.91 -0.48 0.88 -0.23 -0.02 -0.30 -0.27 -0.30 -1.07 l0 -0.53 1.56 -1.59 c2.85 -2.91 3.52 -3.63 3.70 -3.99 0.07 -0.14 0.08 -0.22 0.08 -0.45 0 -0.24 -0.01 -0.28 -0.06 -0.30 -0.09 -0.02 -1.06 -0.21 -1.65 -0.31 -0.40 -0.07 -0.51 -0.08 -0.53 -0.04 -0.01 0.02 -0.05 0.15 -0.08 0.27 -0.11 0.43 -0.42 0.78 -3.38 3.77 l-1.95 1.97 0 2.95 0 2.95 0.43 0.42 c0.25 0.24 0.45 0.47 0.48 0.54 0.06 0.16 0.04 0.59 -0.06 0.90 -0.19 0.62 -0.99 1.01 -1.63 0.80z m12.77 -15.92 c2.47 -0.27 4.52 -1.21 6.45 -2.97 1.64 -1.50 2.82 -3.45 3.38 -5.64 0.17 -0.67 0.20 -1.05 0.18 -2.91 -0.02 -1.77 -0.02 -1.84 -0.23 -2.55 -0.89 -3.04 -2.56 -5.32 -5.05 -6.85 -1.40 -0.86 -2.93 -1.41 -4.52 -1.62 -0.55 -0.07 -2.11 -0.08 -2.68 -0.02 -2.62 0.30 -4.54 1.18 -6.50 2.97 -1.61 1.47 -2.77 3.42 -3.33 5.60 -0.17 0.67 -0.20 1.04 -0.18 2.98 0.02 1.86 0.02 1.88 0.25 2.66 0.70 2.44 2.04 4.43 4.03 6.01 1.87 1.49 3.96 2.28 6.35 2.41 0.38 0.02 1.35 -0.02 1.85 -0.07z"/>
  <path d="M29.20 40.90 c-0.91 -0.10 -2.24 -0.50 -3.25 -1 -0.73 -0.36 -1.81 -1.05 -2.30 -1.48 l-0.17 -0.15 0.58 -0.61 c0.32 -0.33 1.47 -1.49 2.55 -2.57 l1.97 -1.97 0.42 0.21 c0.57 0.29 0.74 0.33 1.51 0.33 0.78 0 0.95 -0.04 1.52 -0.33 l0.41 -0.21 2.12 2.12 c2.20 2.20 2.65 2.67 2.76 2.89 0.08 0.16 0.07 0.19 -0.18 0.42 -0.90 0.85 -3.02 1.86 -4.47 2.15 -1.05 0.20 -2.63 0.29 -3.47 0.21z"/>
  <path d="M37.14 36.55 c-0.55 -0.53 -1.68 -1.65 -2.51 -2.49 l-1.52 -1.53 0.20 -0.41 c0.53 -1.11 0.52 -2.08 -0.03 -3.22 l-0.15 -0.32 1.97 -1.98 c2.43 -2.44 3.02 -2.99 3.19 -2.99 0.06 0 0.38 0.34 0.60 0.65 0.75 1.05 1.55 2.79 1.80 3.93 0.15 0.68 0.20 1.27 0.20 2.30 0 1.40 -0.11 2.16 -0.45 3.16 -0.40 1.17 -0.99 2.32 -1.60 3.11 -0.25 0.32 -0.57 0.67 -0.64 0.72 -0.05 0.03 -0.21 -0.12 -1.05 -0.93z"/>
  <path d="M22.48 37.23 c-0.97 -1.14 -1.84 -2.88 -2.16 -4.33 -0.26 -1.17 -0.30 -3.01 -0.08 -4.27 0.22 -1.34 0.84 -2.78 1.75 -4.15 0.46 -0.69 0.59 -0.82 0.77 -0.78 0.27 0.05 0.47 0.23 2.80 2.55 l2.32 2.31 -0.19 0.40 c-0.23 0.48 -0.28 0.66 -0.34 1.14 -0.03 0.28 -0.03 0.46 0 0.77 0.05 0.50 0.10 0.67 0.34 1.17 l0.19 0.40 -2.53 2.52 c-1.55 1.54 -2.56 2.52 -2.59 2.52 -0.03 0 -0.15 -0.11 -0.27 -0.24z"/>
  <path d="M29.82 32.70 c-0.23 -0.04 -0.49 -0.17 -0.50 -0.25 -0.01 -0.04 0.18 -0.25 0.58 -0.66 l0.60 -0.60 0.60 0.60 c0.68 0.68 0.68 0.68 0.31 0.80 -0.40 0.13 -1.13 0.18 -1.59 0.10z"/>
  <path d="M32.18 31.56 c-0.09 -0.07 -0.37 -0.32 -0.62 -0.57 l-0.45 -0.44 0.42 -0.40 c0.52 -0.49 0.87 -0.80 0.91 -0.80 0.02 0 0.09 0.12 0.16 0.26 0.12 0.24 0.13 0.28 0.14 0.62 0.02 0.59 -0.09 1.19 -0.27 1.38 -0.04 0.04 -0.08 0.08 -0.09 0.08 -0.01 0 -0.09 -0.06 -0.19 -0.13z"/>
  <path d="M28.42 31.48 c-0.05 -0.10 -0.10 -0.27 -0.12 -0.38 -0.11 -0.59 0.03 -1.64 0.24 -1.75 0.05 -0.03 0.14 0.04 0.66 0.56 l0.60 0.60 -0.58 0.58 c-0.37 0.36 -0.61 0.58 -0.65 0.58 -0.05 0 -0.09 -0.05 -0.15 -0.18z"/>
  <path d="M30.11 29.52 c-0.15 -0.13 -0.42 -0.39 -0.60 -0.57 l-0.34 -0.34 0.28 -0.12 c0.65 -0.27 1.33 -0.30 1.97 -0.06 0.32 0.12 0.32 0.12 -0.13 0.58 -0.42 0.43 -0.79 0.74 -0.86 0.74 -0.03 0 -0.17 -0.11 -0.32 -0.23z"/>
  <path d="M32.04 27.73 c-0.69 -0.31 -1.17 -0.41 -1.79 -0.38 -0.48 0.03 -0.70 0.08 -1.28 0.32 l-0.46 0.19 -0.21 -0.19 c-0.12 -0.10 -1.25 -1.22 -2.53 -2.49 l-2.32 -2.31 0.19 -0.17 c1.30 -1.21 2.82 -1.97 4.76 -2.37 0.80 -0.17 1.34 -0.22 2.22 -0.22 1.08 0 1.77 0.09 2.72 0.37 1.60 0.47 2.99 1.22 4 2.16 l0.20 0.18 -2.56 2.53 c-1.41 1.39 -2.56 2.53 -2.57 2.53 -0.01 0 -0.16 -0.07 -0.35 -0.15z"/>
  <path d="M12.40 39.34 c0 -0.94 0.01 -1.55 0.04 -1.63 0.06 -0.23 0.15 -0.19 0.89 0.42 0.67 0.56 1.43 1.11 3.08 2.26 0.44 0.31 0.49 0.35 0.44 0.39 -0.04 0.03 -0.73 0.04 -2.26 0.05 l-2.20 0.01 0 -1.50z"/>
  <path d="M44.40 40.81 c-0.15 -0.01 -0.29 -0.03 -0.30 -0.04 -0.01 -0.01 0.20 -0.17 0.46 -0.35 1.48 -1.02 2.17 -1.53 3.20 -2.35 0.37 -0.30 0.69 -0.55 0.72 -0.55 0.02 0 0.05 0.03 0.07 0.06 0.01 0.03 0.03 0.78 0.04 1.66 l0.01 1.60 -1.96 -0.01 c-1.08 0 -2.08 -0.01 -2.24 -0.02z"/>
  <path d="M12.49 23.52 c-0.04 -0.07 -0.08 -1.11 -0.08 -2.20 l0 -1.16 2.36 0 2.36 0 -1 0.67 c-1.51 1.01 -2.67 1.88 -3.26 2.44 -0.29 0.27 -0.34 0.31 -0.38 0.25z"/>
  <path d="M48.08 23.25 c-0.22 -0.17 -0.55 -0.42 -0.73 -0.57 -0.70 -0.56 -1.74 -1.33 -2.65 -1.93 -0.66 -0.44 -0.78 -0.53 -0.76 -0.56 0.01 -0.01 1.06 -0.03 2.34 -0.03 l2.32 0 -0.02 1.60 c-0.02 1.50 -0.03 1.79 -0.09 1.79 -0.01 0 -0.20 -0.14 -0.42 -0.30z"/>
 </g>
</svg>