<svg width="61" height="61" viewBox="0 0 61 61" fill="none" xmlns="http://www.w3.org/2000/svg">
<path d="M30.382 0.833984C13.6047 0.833984 0 14.4363 0 31.216C0 44.6398 8.70537 56.0283 20.7772 60.0457C22.2955 60.3269 22.8531 59.3866 22.8531 58.5841C22.8531 57.8597 22.8247 55.4662 22.8119 52.9275C14.3593 54.7654 12.5758 49.3428 12.5758 49.3428C11.1937 45.831 9.20242 44.8974 9.20242 44.8974C6.44598 43.0117 9.4102 43.0503 9.4102 43.0503C12.4612 43.2647 14.0676 46.1813 14.0676 46.1813C16.7774 50.8261 21.1751 49.4832 22.9088 48.7071C23.1814 46.7432 23.9689 45.4031 24.8377 44.6444C18.0896 43.8759 10.9955 41.2708 10.9955 29.6293C10.9955 26.3124 12.1824 23.602 14.126 21.4744C13.8105 20.709 12.7707 17.619 14.4203 13.4341C14.4203 13.4341 16.9716 12.6175 22.7775 16.5484C25.2009 15.875 27.8 15.5376 30.382 15.5262C32.9641 15.5376 35.5651 15.875 37.9932 16.5484C43.7923 12.6175 46.34 13.4341 46.34 13.4341C47.9937 17.619 46.9533 20.709 46.6378 21.4744C48.5858 23.602 49.7646 26.3122 49.7646 29.6293C49.7646 41.2984 42.6571 43.8681 35.8918 44.6201C36.9815 45.5629 37.9525 47.412 37.9525 50.2464C37.9525 54.3114 37.9172 57.5833 37.9172 58.5841C37.9172 59.3926 38.4641 60.34 40.0043 60.0416C52.0695 56.0197 60.7639 44.6353 60.7639 31.216C60.7639 14.4363 47.1611 0.833984 30.382 0.833984Z" fill="#161614"/>
<path d="M11.3791 44.1139C11.3124 44.2648 11.0746 44.31 10.8585 44.2066C10.6381 44.1075 10.5142 43.9016 10.5857 43.7501C10.6512 43.5947 10.889 43.5513 11.1089 43.6557C11.3298 43.7546 11.4556 43.9624 11.3791 44.1139ZM12.8736 45.4474C12.7288 45.5817 12.4455 45.5193 12.2532 45.307C12.0544 45.0952 12.0173 44.8121 12.1643 44.6756C12.3137 44.5414 12.5884 44.6041 12.7876 44.8161C12.9863 45.0304 13.025 45.3118 12.8734 45.4476L12.8736 45.4474ZM13.899 47.1535C13.7126 47.2828 13.4081 47.1616 13.2201 46.8913C13.034 46.6214 13.034 46.2973 13.2242 46.1674C13.4129 46.0376 13.7126 46.1543 13.9033 46.4224C14.0891 46.6971 14.0891 47.0212 13.8987 47.1537L13.899 47.1535ZM15.6327 49.1295C15.4661 49.313 15.1116 49.2639 14.8519 49.0132C14.5864 48.7683 14.5123 48.4206 14.6793 48.2369C14.8478 48.053 15.2045 48.1047 15.4661 48.3532C15.7299 48.5977 15.8105 48.9479 15.6329 49.1295H15.6327ZM17.8735 49.7967C17.8003 50.0345 17.4586 50.1427 17.1146 50.0417C16.771 49.9375 16.546 49.6587 16.6154 49.4183C16.6869 49.1788 17.03 49.0661 17.3767 49.1743C17.7198 49.278 17.9452 49.5546 17.8737 49.7967H17.8735ZM20.4241 50.0795C20.4326 50.3302 20.1407 50.538 19.7795 50.5425C19.4161 50.5504 19.1223 50.3476 19.1185 50.1012C19.1185 49.8482 19.4037 49.6423 19.7669 49.6363C20.1281 49.6292 20.4241 49.8305 20.4241 50.0795ZM22.9293 49.9835C22.9727 50.228 22.7216 50.4791 22.363 50.5459C22.0103 50.6102 21.6839 50.4594 21.6388 50.217C21.595 49.9664 21.8509 49.7155 22.2028 49.6504C22.5622 49.588 22.8836 49.735 22.9293 49.9835Z" fill="#161614"/>
</svg>
