<svg width="63" height="63" viewBox="0 0 63 63" fill="none" xmlns="http://www.w3.org/2000/svg">
<path d="M19.1339 19.2977H6.91587C6.26483 19.2977 5.64455 19.0175 5.21376 18.5291C4.78248 18.0399 4.58191 17.3884 4.66362 16.7412C4.92263 14.6866 5.87145 12.7502 7.33497 11.2891L15.8798 2.7442C17.4497 1.17227 19.5352 0.208078 21.7516 0.0302755C23.0906 -0.0754217 24.2075 0.981305 24.2075 2.29286V14.2246C24.2072 17.0217 21.9314 19.2977 19.1339 19.2977ZM9.08088 15.4121H19.1339C19.7889 15.4121 20.3218 14.8795 20.3218 14.2245V4.33815C19.6945 4.61033 19.1187 4.99989 18.6285 5.49085L10.0815 14.0378C9.67716 14.4413 9.34002 14.907 9.08088 15.4121Z" fill="black"/>
<path d="M50.2659 63H12.734C8.24317 63 4.58966 59.3464 4.58966 54.8558V17.9137C4.58966 17.6888 4.5984 17.4535 4.61587 17.2136C4.78469 14.9736 5.75012 12.8711 7.33459 11.2891L15.8795 2.74407C17.5674 1.05377 19.8135 0.0805957 22.2028 0.00479883C22.309 0.0020918 22.4073 0 22.5033 0H50.2659C54.7567 0 58.4104 3.65363 58.4104 8.14423V37.3289C58.4104 38.4017 57.5404 39.2716 56.4676 39.2716C55.3947 39.2716 54.5248 38.4017 54.5248 37.3289V8.14423C54.5248 5.796 52.6142 3.88557 50.266 3.88557H22.5033C22.4413 3.88557 22.3778 3.8873 22.3158 3.8889C20.9291 3.93295 19.6159 4.50179 18.6283 5.49072L10.0814 14.0377C9.15408 14.9636 8.58942 16.1932 8.49098 17.501C8.48065 17.642 8.47523 17.7825 8.47523 17.9137V54.8558C8.47523 57.204 10.3855 59.1144 12.7339 59.1144H50.2659C52.6141 59.1144 54.5247 57.204 54.5247 54.8558V48.9852C54.5247 47.9124 55.3946 47.0424 56.4675 47.0424C57.5403 47.0424 58.4102 47.9124 58.4102 48.9852V54.8558C58.4104 59.3465 54.7569 63 50.2659 63Z" fill="black"/>
<path d="M19.9708 45.0034C19.9708 44.9078 20.0026 44.7808 20.0345 44.6531L25.9603 25.219C26.3108 24.1038 27.7446 23.5624 29.2101 23.5624C30.6756 23.5624 32.1093 24.1038 32.4599 25.219L38.4175 44.6531C38.4493 44.7806 38.4812 44.9078 38.4812 45.0034C38.4812 46.1823 36.6653 47.0426 35.2954 47.0426C34.4988 47.0426 33.8618 46.7875 33.6707 46.1186L32.5876 42.1362H25.865L24.7819 46.1186C24.5907 46.7875 23.9535 47.0426 23.1572 47.0426C21.7864 47.0426 19.9708 46.1823 19.9708 45.0034ZM31.5354 38.3127L29.2097 29.7746L26.884 38.3127H31.5354Z" fill="black"/>
<path d="M39.209 29.5276V27.266H36.9475C36.2948 27.266 35.8518 26.6831 35.8518 25.7974C35.8518 24.9581 36.2945 24.3053 36.9475 24.3053H39.209V22.0672C39.209 21.5075 39.8617 20.9481 40.7011 20.9481C41.587 20.9481 42.1699 21.5075 42.1699 22.0672V24.3053H44.408C44.9675 24.3053 45.5271 24.958 45.5271 25.7974C45.5271 26.6831 44.9676 27.266 44.408 27.266H42.1699V29.5276C42.1699 30.1802 41.587 30.6231 40.7011 30.6231C39.8618 30.6232 39.209 30.1803 39.209 29.5276Z" fill="black"/>
</svg>
