<svg width="50" height="50" viewBox="0 0 50 50" fill="none" xmlns="http://www.w3.org/2000/svg">
<path d="M1.62364 47.8367H8.12372C9.02048 47.8367 9.74736 47.1097 9.74736 46.213V17.8013C9.74736 16.9044 9.02048 16.1776 8.12372 16.1776H1.62364C0.726794 16.1776 0 16.9044 0 17.8013V46.213C0 47.1096 0.726794 47.8367 1.62364 47.8367Z" fill="black"/>
<path d="M1.62364 11.1827H8.12372C9.02048 11.1827 9.74736 10.4558 9.74736 9.55904V3.78693C9.74736 2.89017 9.02048 2.16329 8.12372 2.16329H1.62364C0.726794 2.16329 0 2.89017 0 3.78693V9.55904C0 10.4558 0.726794 11.1827 1.62364 11.1827Z" fill="black"/>
<path d="M47.5543 19.473C46.6409 18.2707 45.2941 17.282 43.5132 16.507C41.7324 15.7325 39.7666 15.345 37.6159 15.345C33.2499 15.345 29.5504 17.0112 26.5174 20.3444C25.9139 21.0076 25.4751 20.8626 25.4751 19.9657V17.8013C25.4751 16.9044 24.7481 16.1776 23.8513 16.1776H18.0449C17.1481 16.1776 16.4213 16.9044 16.4213 17.8013V46.213C16.4213 47.1097 17.1482 47.8367 18.0449 47.8367H24.545C25.4419 47.8367 26.1687 47.1097 26.1687 46.213V36.3321C26.1687 32.2157 26.4172 29.3942 26.9144 27.868C27.4113 26.3418 28.3309 25.1162 29.6721 24.1912C31.0135 23.2661 32.5281 22.8033 34.2165 22.8033C35.5346 22.8033 36.6621 23.1272 37.5988 23.7749C38.5355 24.4225 39.212 25.3298 39.6282 26.4979C40.0447 27.6658 40.2527 30.2385 40.2527 34.2163V46.2129C40.2527 47.1096 40.9795 47.8366 41.8763 47.8366H48.3764C49.2731 47.8366 49.9999 47.1096 49.9999 46.2129V30.1228C49.9999 27.2785 49.8206 25.093 49.4625 23.5668C49.1044 22.0405 48.4683 20.676 47.5543 19.473Z" fill="black"/>
</svg>
