<svg width="58" height="58" viewBox="0 0 58 58" fill="none" xmlns="http://www.w3.org/2000/svg">
<path d="M51.5 39V13.978C51.5 13.212 51.408 12.645 50.95 12.186L39.313 0.55C38.964 0.201 38.48 0 37.985 0H8.963C7.777 0 6.5 0.916 6.5 2.926V39H51.5ZM37.5 3.391C37.5 2.933 38.053 2.704 38.377 3.028L48.472 13.123C48.796 13.447 48.567 14 48.109 14H37.5V3.391ZM12.5 17H18.5V19H24.5V15H34.5V19H40.5V17H46.5V23H40.5V21H36.952C41.518 23.636 44.5 28.588 44.5 34C44.5 34.552 44.053 35 43.5 35C42.947 35 42.5 34.552 42.5 34C42.5 28.754 39.271 24.001 34.5 22.005V25H24.5V22.005C19.729 24.002 16.5 28.755 16.5 34C16.5 34.552 16.053 35 15.5 35C14.947 35 14.5 34.552 14.5 34C14.5 28.588 17.482 23.636 22.048 21H18.5V23H12.5V17Z" fill="black"/>
<path d="M6.5 41V56C6.5 57.009 7.72 58 8.963 58H49.037C50.28 58 51.5 57.009 51.5 56V41H6.5ZM22.233 52.298C22.083 52.64 21.871 52.941 21.597 53.2C21.323 53.459 20.987 53.667 20.585 53.822C20.183 53.977 19.729 54.054 19.218 54.054C18.999 54.054 18.774 54.042 18.541 54.02C18.308 53.998 18.074 53.958 17.837 53.904C17.6 53.85 17.374 53.774 17.16 53.678C16.946 53.582 16.762 53.466 16.606 53.329L16.893 52.153C17.021 52.226 17.182 52.297 17.378 52.365C17.574 52.433 17.776 52.497 17.986 52.556C18.196 52.615 18.405 52.663 18.615 52.7C18.825 52.737 19.02 52.755 19.203 52.755C19.759 52.755 20.185 52.625 20.481 52.365C20.777 52.105 20.925 51.72 20.925 51.21C20.925 50.9 20.821 50.636 20.611 50.417C20.401 50.198 20.139 50 19.825 49.822C19.511 49.644 19.171 49.467 18.806 49.289C18.441 49.111 18.1 48.901 17.781 48.66C17.462 48.419 17.198 48.134 16.988 47.806C16.778 47.478 16.674 47.068 16.674 46.576C16.674 46.13 16.756 45.733 16.92 45.387C17.084 45.041 17.305 44.746 17.583 44.505C17.861 44.264 18.185 44.079 18.554 43.951C18.923 43.823 19.313 43.76 19.723 43.76C20.142 43.76 20.566 43.799 20.994 43.876C21.422 43.953 21.768 44.079 22.033 44.252C21.978 44.37 21.915 44.5 21.842 44.642C21.769 44.784 21.7 44.915 21.637 45.038C21.574 45.161 21.519 45.264 21.473 45.346C21.427 45.428 21.4 45.474 21.391 45.483C21.336 45.456 21.275 45.42 21.206 45.374C21.137 45.328 21.04 45.283 20.912 45.237C20.784 45.191 20.616 45.16 20.406 45.141C20.196 45.122 19.927 45.127 19.599 45.155C19.416 45.174 19.244 45.225 19.079 45.312C18.914 45.399 18.769 45.505 18.641 45.633C18.513 45.761 18.413 45.904 18.34 46.064C18.267 46.224 18.231 46.377 18.231 46.522C18.231 46.886 18.335 47.18 18.545 47.404C18.755 47.628 19.015 47.823 19.324 47.992C19.633 48.161 19.971 48.325 20.336 48.484C20.701 48.643 21.04 48.838 21.355 49.065C21.67 49.292 21.931 49.578 22.141 49.919C22.351 50.26 22.455 50.7 22.455 51.238C22.459 51.603 22.384 51.956 22.233 52.298ZM28.994 54.055H26.861L23.73 43.924H25.603L27.941 52.619L30.416 43.924H32.275L28.994 54.055ZM41.668 52.701C41.458 52.966 41.224 53.181 40.964 53.35C40.704 53.519 40.431 53.658 40.144 53.767C39.857 53.876 39.561 53.954 39.255 54C38.949 54.046 38.647 54.068 38.346 54.068C37.744 54.068 37.191 53.959 36.685 53.74C36.179 53.521 35.737 53.198 35.359 52.769C34.981 52.34 34.684 51.803 34.47 51.156C34.256 50.509 34.149 49.761 34.149 48.914C34.149 48.067 34.256 47.321 34.47 46.679C34.684 46.037 34.981 45.501 35.359 45.073C35.737 44.645 36.181 44.319 36.692 44.095C37.203 43.871 37.754 43.76 38.346 43.76C38.893 43.76 39.404 43.851 39.877 44.033C40.35 44.215 40.774 44.489 41.148 44.853L40.013 45.865C39.794 45.6 39.543 45.409 39.261 45.291C38.979 45.173 38.687 45.113 38.386 45.113C38.049 45.113 37.728 45.176 37.422 45.304C37.116 45.432 36.843 45.648 36.602 45.953C36.361 46.258 36.171 46.652 36.035 47.136C35.899 47.62 35.825 48.211 35.816 48.913C35.825 49.597 35.896 50.189 36.028 50.69C36.16 51.191 36.342 51.601 36.575 51.92C36.808 52.239 37.072 52.476 37.368 52.631C37.664 52.786 37.976 52.863 38.305 52.863C38.406 52.863 38.539 52.856 38.708 52.842C38.877 52.828 39.045 52.806 39.214 52.774C39.383 52.742 39.544 52.699 39.699 52.644C39.854 52.589 39.968 52.512 40.041 52.412V49.924H38.332V48.803H41.668V52.701Z" fill="black"/>
</svg>
